<svg id="Layer_1_copy" data-name="Layer 1 copy" xmlns="http://www.w3.org/2000/svg" viewBox="0 0 707.36 1100"><defs><style>.cls-1{fill:#fff;}.cls-2{fill:#73bcbf;}.cls-3{fill:#fcf;}.cls-4{fill:#181219;}.cls-5{fill:#fc9;}.cls-6{fill:#bf9973;}.cls-7{fill:#3f3226;}.cls-8{fill:#906;}</style></defs><title>ImanFace</title><g id="_Group_" data-name="&lt;Group&gt;"><path d="M118.35,1102.16c-1.79-1.24-4.84-2.23-5.14-3.76a92.82,92.82,0,0,1-1.41-15.56c-0.18-6.41-.31-12.85.11-19.24,1.54-23.29,3-46.59,5.11-69.83,1.57-17.53,3.55-35,6.23-52.44,2.53-16.45,6-32.78,9.57-49.05,0.84-3.86-.47-5.76-2.64-8.42-7.69-9.44-15.49-18.85-22.34-28.88-10.62-15.53-15.35-33.33-17.69-51.8-3.07-24.32.21-48.26,5.26-71.94,2.43-11.38,6.33-22.47,10-33.54,1.27-3.84,1-6.25-1.92-9.25-11.93-12.32-23.44-25-32.19-40-6.94-11.9-12.4-24.25-14.2-38-1.56-11.91-4.23-24-3.55-35.78,0.74-12.95,3.67-26.07,7.6-38.49C68.36,513.57,77,491.32,85,468.91a140.77,140.77,0,0,0,8.5-46.82,11.76,11.76,0,0,0-2.27-7.27c-9.56-11.13-14.55-24.19-17.18-38.36C72.31,367,69.64,357.54,69,348c-1.1-16.35,12.83-37.47,28-43.73,7.94-3.29,15.7-1.3,23,2.4,3.76,1.9,7.29,4.24,11.61,6.77,0.67-6.09,1.24-12.08,2-18.05,2-15.8,3.3-31.73,6.28-47.33,3.51-18.4,10.9-35.53,19.62-52.17a304.17,304.17,0,0,1,30.6-46.74c13.27-16.9,29.12-31.36,45.47-45.22a182.85,182.85,0,0,1,56.6-32.77c18-6.48,35.81-13.74,54.32-18.05,23.91-5.58,48.31-10.05,73.14-8.27,11.39,0.82,22.72,2.63,34,4.31,6.32,0.94,12.78,1.84,18.76,3.94C498.27,62.11,522.26,74.5,541,95.15a146.63,146.63,0,0,1,15,20.47c2,3.16,3.38,3.65,6.37,2,3.25-1.8,6.75-3.17,9.95-5.06,7.92-4.65,16.51-5.59,25.33-4.51,21.86,2.7,40.86,10.6,56.47,27.24,14.61,15.57,31.22,29.26,44.12,46.48,4,5.36,8.3,10.58,11.84,16.25l0.06,0.1,0,0,0,7.61c0.06,47.22-2.44,890.17-2.66,896.4C707,1112.1,119,1100.88,118.35,1102.16Z"/><path class="cls-1" d="M578.33,350l-0.18.08,0-.13Z"/><path class="cls-1" d="M562.29,380.72c0.36,8.58.68,12.06-10.35,23h0c-6.19,3-12.13,6.17-30.89,8.28-14.2.22-32.63-1.76-36.57-7.53a17.83,17.83,0,0,1-2.79-9.4,35.24,35.24,0,0,1,.36-5.64c3.88-3.53,11.08-8.1,12.17-1,1.55,10.14,7.58,16,17.82,17.23a43.71,43.71,0,0,0,16.19-1.08c6.52-1.73,10.75-5.65,12.38-13.23,1.23-4.07,1.77-6.08,6.66-7.57C551.16,382.79,560.41,380.94,562.29,380.72Z"/><path class="cls-1" d="M397.45,391.84a8.41,8.41,0,0,1,.48,5.23c-1.32,2.79-1.45,4.22-5.47,6.19-1.92.67-3.43,1.24-4.61,1.72-8.15,2.25-27.31,7.44-34.15,7.54-7.2.11-22.09-1.71-24.8-3.1a33.26,33.26,0,0,1-8.76-7.92,11.21,11.21,0,0,1-1.52-8.57c0.65-2.2,13.12-2,14.2,0,6,11.15,18.79,13.84,30.7,12,9.08-2.31,10.41-5.31,15.12-12.34,3.77-7.54,2-12.52.32-15.73C384.2,377.45,391.57,385.26,397.45,391.84Z"/></g><path d="M568.6,722.74h0C562.65,717.19,555.7,712.39,551,706c-11.12-15.23-17.55-32.94-23.51-50.66-3.19-9.47-5.14-19.37-7.65-29.09-15.23,7.45-15.23,7.45-11.85,22.84,0.59,2.68,1.22,5.35,1.67,8.06,3.1,18.51,9.63,35.9,17.08,53,1.61,3.71,3.62,5.42,7.8,5.38,10.52-.11,20.64,1.79,30,7.09,1,0.6,2.71.13,4.08,0.15a0.61,0.61,0,0,0-.05.12s0,0,0,0l-0.07.14C568.44,723.08,568.48,723,568.6,722.74ZM516.29,391c-0.15.38-2.29,11-2.42,11.31l0.5-.17C514.34,401.9,516.29,391.35,516.29,391Zm-11.19-5.56c-2.41.07-4.57,0.14-4.73,0.1a1.47,1.47,0,0,0-.51.42,1.23,1.23,0,0,0,.47.4c0.38-.06,11.16-0.9,11.52-1C511.65,385.22,508.17,385.33,505.1,385.42Zm-281,191.32h0s0,0,0,0c-4.19,8-8,16.28-12.65,24-11,18.09-22.76,35.69-33.5,53.9C161.5,682.53,148,711.7,139,743c-8.24,28.55-15,57.27-12.72,87.18a120.3,120.3,0,0,0,24.55,64.77c8.83,11.6,20.41,17.87,35.25,17.68,10.25-.13,20.33-1.28,27-10,8.43-11,16.68-22.18,21.27-35.56,3.08-9,4-17.84.37-26.95-1.75-4.46-5.17-6.39-9.28-5.84-2.79.37-6.93,2.26-7.62,4.39a56.51,56.51,0,0,0-2.23,16.67c0,1.54,3,3.94,5,4.38,1.23,0.26,3.74-2.15,4.52-3.88,1.09-2.41,1-5.32,1.63-8a11.26,11.26,0,0,1,1.65-2.87c1,0.67,2.62,1.23,2.74,2,0.55,3.59,2.09,8,.64,10.74A156.61,156.61,0,0,1,217.07,880c-1.72,2.23-5.57,3.53-8.61,3.91a32.28,32.28,0,0,1-34.26-20c-3.47-8.7-5.29-18.06-7.86-27.12-6-21.08-5.74-42.71-5-64.24,0.73-20.24,2.69-40.44,4.3-60.65,1.34-16.71,7.54-31.69,20-42.88,18.74-16.91,28.44-38.45,35.08-62,0.06-.2.11-0.4,0.16-0.6s0.14-.55.21-0.84c0.17-.69.32-1.41,0.47-2.16,0.07-.35.14-0.7,0.2-1.07C223.66,591.84,224.1,576.74,224.1,576.74Zm97.48-3.9c1,3,1.53,6.16,3,8.86,8.91,16.5,14.74,34.12,19.55,52.14,3.2,12,3.11,24.18,1.44,36.35-2.08,15.22-3.38,30.7-7.16,45.52C334,733,327.61,749.8,321.47,766.59,314,787,306.1,807.33,298,827.55c-9.32,23.34-19.54,46.33-28.37,69.86-4.32,11.51-8.12,23.65-5.48,36.43,1.51,7.32,6.48,12.06,12.25,16.3,5.07,3.73,10,3,15.34.79,7.36-3,14.86-5.67,22.29-8.51,3.11-1.19,6.18-2.46,9.09-3.62-8.22-13.16-12.83-26.57-11-41,2.56-19.69,5.84-39.34,10.14-58.72,4-17.88,9.68-35.38,14.63-53,7.3-26.09,14.71-52.14,21.89-78.26,6.36-23.13,10.75-46.41,7.48-70.71-1.84-13.74-5.55-26.67-14.86-36.75C342.41,590.52,322.16,573.53,321.58,572.84ZM293.89,270.57c-0.62.79-26.66,32.69-34.8,52.06-5.33,12.69-3.43,25.76-1.26,38.87A182.5,182.5,0,0,0,269.88,404c0.15-6-.82-12-0.68-17.86,0.61-25.63,1.36-51.3,7.27-76.42A103.35,103.35,0,0,1,283,290.77C286.18,283.83,290.22,277.28,293.89,270.57ZM255,248h0c-3.75,5.81-8,11.43-10.9,17.64-5.09,10.77-9.52,21.87-14,32.94-10.16,25.32-13.43,51.85-14.07,78.92-0.7,29.27,5.88,57.28,13.48,85.2Q246.18,524,262.62,585.3q10.58,39.6,20.67,79.34a121.09,121.09,0,0,1,3.26,19.09c1.73,19.53-.23,38.89-4.49,57.93-2.5,11.17-6.63,21.76-14.95,30.36-6.23,6.44-11.7,13.61-17.49,20.45l-0.33,0-0.18.13,0.31,0.05c0.06-.08.13-0.15,0.2-0.23,5.73-1,11.91-.94,17.06-3.22,23.26-10.32,37.64-28.14,41.29-53.55,2.66-18.46,4.13-37.08,6.4-55.59,2.5-20.46.27-40.78-1.41-61.12-1.1-13.39-2.49-26.76-3.86-40.12-1.12-11-1.53-22.06-3.79-32.78-4-19-8.41-38-14-56.54-6.9-22.81-15.41-45.12-22.83-67.78-5.34-16.29-11.63-32.51-14.59-49.28-3.65-20.73-4.77-42-6.1-63S255.05,248.74,255,248Zm455-50,0.06,0.1,0,0,0,7.61c-14.95-17.5-27.3-37-45.63-51.45a451.74,451.74,0,0,1,45.41,124.86l-0.06,20.25C699.48,261.3,690.42,222.77,672.94,187c2,10.35,4.52,20.63,5.79,31.07,1.53,12.52,2.29,25.17,2.82,37.78,1,24.92,1.2,49.87,2.59,74.76,2.18,39.26,6.65,78.41,6.39,117.79-0.19,29.34-1.68,58.69-1.24,88,0.49,33.38,2.83,66.72,3.7,100.1,1,36.63,1.15,73.28,1.64,109.93,0.08,6.23.14,12.48-.08,18.71-0.35,9.94-3.3,18.57-12.68,23.82-2.79,1.56-5.35,3.54-9.53,6.34,8,3.76,14.74,7.4,21.85,9.89,1.9,0.67,5.66-1.59,7.46-3.53a79.2,79.2,0,0,0,6.65-8.75l0,9.68a61.65,61.65,0,0,1-6.48,6.44,31.26,31.26,0,0,1,6.45,4.62l0,6.37-57-29.88c-2.87-1.51-5.75-3-8.6-4.53-7.41-4-7.52-4.09-13,2.36-20.74,24.37-44.35,45.8-68.59,66.54-6.73,5.75-13.87,11.57-21.8,15.2-9.27,4.22-19.6,4.81-29.93,2.22-24.67-6.19-39.94-22.08-48.09-45.6-0.74-2.12-1.6-4.19-2.43-6.28a10.86,10.86,0,0,0-1.22-1.42c-6.07,8.74-11.63,17.19-17.68,25.29-4.87,6.53-10.12,12.82-15.58,18.87-10.62,11.75-23.79,13.68-38.25,8.81a126.26,126.26,0,0,1-35.91-19.5c-6.05-4.57-8.16-3.94-8.89,3.3-1.65,16.33-3.46,32.81,2.32,48.69a34.39,34.39,0,0,0,8.14,12.24c6.66,6.55,10.31,6.67,18.68,2.52,0.45-.22.92-0.4,1.36-0.62,13.14-6.56,17.41-5.33,24.4,7.49,8.61,15.76,9.41,31.79.6,47.7a18,18,0,0,1-7.38,6.93q-25.12,12.36-50.6,24c-11.77,5.4-23.73,10.36-35.65,15.42-6,2.57-11.54,5.58-18.55,6.73-13.85,2.27-25.54-2.57-36.21-8.84-16.73-9.82-29.21-24.42-34-43.69-5.12-20.48-6.76-41.28.49-61.83a15.62,15.62,0,0,0,.38-3.26c-29,14.18-54.33,12.11-74.18-16.11l-1.5.52c-1.14,5.61-2.39,11.21-3.4,16.84-4,22.27-8.73,44.45-11.57,66.87-2.67,21.16-3.91,42.55-4.66,63.88-0.66,19.11.24,38.29,0.31,57.43,0,1.28-1.23,2.56-1.88,3.84-1.79-1.24-4.84-2.23-5.14-3.76a92.82,92.82,0,0,1-1.41-15.56c-0.18-6.41-.31-12.85.11-19.24,1.54-23.29,3-46.59,5.11-69.83,1.57-17.53,3.55-35,6.23-52.44,2.53-16.45,6-32.78,9.57-49.05,0.84-3.86-.47-5.76-2.64-8.42-7.69-9.44-15.49-18.85-22.34-28.88-10.62-15.53-15.35-33.33-17.69-51.8-3.07-24.32.21-48.26,5.26-71.94,2.43-11.38,6.33-22.47,10-33.54,1.27-3.84,1-6.25-1.92-9.25-11.93-12.32-23.44-25-32.19-40-6.94-11.9-12.4-24.25-14.2-38-1.56-11.91-4.23-24-3.55-35.78,0.74-12.95,3.67-26.07,7.6-38.49C68.36,513.57,77,491.32,85,468.91a140.77,140.77,0,0,0,8.5-46.82,11.76,11.76,0,0,0-2.27-7.27c-9.56-11.13-14.55-24.19-17.18-38.36C72.31,367,69.64,357.54,69,348c-1.1-16.35,12.83-37.47,28-43.73,7.94-3.29,15.7-1.3,23,2.4,3.76,1.9,7.29,4.24,11.61,6.77,0.67-6.09,1.24-12.08,2-18.05,2-15.8,3.3-31.73,6.28-47.33,3.51-18.4,10.9-35.53,19.62-52.17a304.17,304.17,0,0,1,30.6-46.74c13.27-16.9,29.12-31.36,45.47-45.22a182.85,182.85,0,0,1,56.6-32.77c18-6.48,35.81-13.74,54.32-18.05,23.91-5.58,48.31-10.05,73.14-8.27,11.39,0.82,22.72,2.63,34,4.31,6.32,0.94,12.78,1.84,18.76,3.94C498.27,62.11,522.26,74.5,541,95.15a146.63,146.63,0,0,1,15,20.47c2,3.16,3.38,3.65,6.37,2,3.25-1.8,6.75-3.17,9.95-5.06,7.92-4.65,16.51-5.59,25.33-4.51,21.86,2.7,40.86,10.6,56.47,27.24,14.61,15.57,31.22,29.26,44.12,46.48C702.19,187.13,706.47,192.35,710,198ZM687.13,769.69c0.21-25.41.88-50.83,0.51-76.23-0.4-27-1.79-54-2.73-80.94-0.64-18.38-1.56-36.76-1.8-55.14-0.06-5,0-10,.15-15,0.23-8.91.61-17.83,0.59-26.74,0-24.67-.63-49.34-0.68-74-0.05-26.45.32-52.9-3.55-79.17-1.34-9.08-1.93-18.36-4.19-27.2C668.2,307,660.13,279,652.81,250.8c-7.21-27.79-18.61-53.62-35.38-76.89-14.85-20.59-35.44-26.25-60-21.49,0.65,0.89.86,1.48,1.23,1.61a14.5,14.5,0,0,0,3.56,1,47.86,47.86,0,0,1,28.35,12.13,104.72,104.72,0,0,1,24.26,32.61c8.45,17.5,12.75,36.21,17.36,54.64,4.13,16.49,4.59,34,5.79,51.1,1.84,26.3,3,52.66,4.31,79,0.33,6.47,0,13,.46,19.43,2.24,30.25,5,60.46,6.81,90.73,0.43,7-.26,11.92,9,13.4,12.19,1.95,21.77,22.45,21.77,34.24a17.66,17.66,0,0,1-.13,2.24C678,562.28,675.57,580,673,597.72c-0.95,6.61-2.66,13.12-3.66,19.72-1.4,9.29-6.73,14.59-15.61,17-1.56.42-3.72,2-4,3.4-3.27,17.26-5.39,34.73,1.06,51.58,2.59,6.74,7.33,12.91,12.14,18.44,3.53,4.07,8,2.57,9.52-2.71a40.26,40.26,0,0,0,1-11.77c0-1.58-1.75-3.1-2.71-4.65a49.85,49.85,0,0,0-3.78,4.33c-0.53.75-.22,2.11-0.77,2.83a11.44,11.44,0,0,1-2.8,2C663,696.93,662,696,662,695c-0.4-6.51,3.42-12.24,8.17-12.52,5.15-.3,8.94,4.08,9.45,11.24,0.54,7.66-.91,14.9-5.27,21.37-5,7.41-10.07,14.77-14.57,21.37,3.53,5.94,6.9,11.31,9.86,16.9,0.48,0.91-.89,2.79-1.4,4.22-1.07-.7-2.45-1.19-3.15-2.16-2-2.83-3.47-6.14-5.77-8.71-1.62-1.81-4.26-2.71-6.45-4-1.08,2.27-3.13,4.58-3.07,6.82,0.37,12.57,6.74,22.16,16.2,29.88,4.18,3.41,9,5.77,14.46,3.38S687.08,775.19,687.13,769.69ZM675.54,307.91c1.33-1.23,1.56-2,1.55-2.69q-0.72-34.39-1.5-68.79a34,34,0,0,0-.61-6.7c-5.13-22.52-9.43-45.27-15.78-67.44s-18.9-39.16-42.89-45.48c-13.14-3.47-26.24-5-38.85,0-17.74,7.08-32.67,18.74-46,32.32-5,5.07-9.26,10.79-13.85,16.21-0.23.85,5.84-1.95,8.34-3.47C538.56,154.19,551.3,147,566.51,146c20.36-1.29,39.05,2.9,52.55,19.27,16.49,20,27.88,43,35.41,67.73,6.74,22.06,12,44.55,18.07,66.82C673.29,302.58,674.53,305.22,675.54,307.91ZM630.18,580.65c23.83,9.39,41.69-1.24,41.48-28.87-2.45,1.89-4.38,3.85-6.7,5.1-4.12,2.22-8.29,4.93-12.76,5.81-19.78,3.87-42-10.68-49.71-22.64-17.09-26.66-18.79-56.19-17.72-86.46,0.32-8.95.05-17.93,0.05-26.89a4,4,0,0,0-2.33,2.92c-4.71,23.6-5.95,47.35-2.69,71.22,2.58,18.93,7.7,37.08,19.25,52.69C607.38,564.79,616.65,575.32,630.18,580.65Zm14.57-22.18c14.05,1.6,31.32-9.46,25.94-29.72-2.62-9.87-11.13-17.19-20.89-17.3-5.87-.06-10.22,3.68-10.1,8.7a19.83,19.83,0,0,0,17,18.87c3.53,0.47,5.67-.26,6.07-2.27l2.85,0.2a9.78,9.78,0,0,1-1.18,2.83c-2.41,3.84-5.6,5.26-10.18,3.89-10.53-3.15-18.43-8.74-19.79-21.09-6.76,3.38-11.89,8.07-11.42,14.93C623.94,550.18,632,557,644.75,558.47Zm16.94,62.21c3.2-12.7,5.15-25.72,7.79-39.49-7.38,3.25-12.59,6.37-18.23,7.85-12.18,3.2-23.27-.95-33.38-7.36-15.83-10-26.58-24.49-34.11-41.46-1-2.15-1.84-4.33-2.76-6.5-0.85,4.77-.28,9.1-0.08,13.45,1.64,34.64,31.12,80.84,66.6,81.42C655.66,628.72,659.64,628.81,661.69,620.68Zm7.63,169.49c-1.06-1.33-1.87-3-3.23-3.92-7-4.46-13.75-9-16.84-17.2-0.43-1.12-.85-2.25-1.28-3.37-1.83-4.85-3.63-9.72-5.08-14.68-0.73-2.49-1.13-4.63-4.09-3.27-7.73,3.56-15.28,2.08-22.86-.21l-0.26-.33c-0.23-.08-1.64-0.6-3.81-1.48a12.58,12.58,0,0,0-1.88-2.85c-2.84-2.78-6.54-4.94-8.66-8.16-13.76-20.79-26.22-42.25-32.57-66.7-1.79-6.89-4.27-13.6-6.43-20.4a15.75,15.75,0,0,0-3.94,8c-1.79,12-3.18,24.09-5,36.1-0.67,4.31.12,7.72,3.09,10.9,6.74,7.23,13.61,14.36,19.92,22,7.55,9.07,27.17,17.72,35.51,21.1l0.29,0.48,3.35,1.2,0.43,0.13c0.91,1.15,1.66,2.52,2.82,3.2q10.3,6.06,20.81,11.76c3.43,1.86,5.37,2.92,6,4.12,0.72,1.42-.43,3.06-3.19,6.48-3.74,4.63-1.58,6.17,2.39,8.08,5.14,2.48,10.13,5.27,15.19,7.92,1.31,0.68,2.59,1.77,3.95,1.89C665.67,791.12,667.51,790.48,669.32,790.17Zm-4.8-71.71a4.31,4.31,0,0,0-1.27-4c-7.56-4.62-12.45-11.47-15.89-19.28a75.09,75.09,0,0,1-5.7-37.9c0.6-6.19,1.65-12.33,2.32-18.5,0.26-2.39.67-4.68-3-5.69-9.23-2.55-18.31-5.66-28.81-9,0.61,7.92,1.28,16,1.85,24,1.33,18.86,6.66,36.72,14.26,53.84,4,9.06,9.12,17.75,18.92,22.21C653.15,726.87,662,724.19,664.52,718.46Zm-16,17.08c-4.7,0-8.12,0-11.53,0a27.43,27.43,0,0,1-19.12-7.42c-9.73-9.34-18.28-19.68-22.13-33-4-14.07-7.86-28.22-12.16-42.23-6.09-19.82-9.1-40.13-10.57-60.74-0.42-6-1.12-12-1.7-18l-1.66-.47c-2.65,3.46-7.46,6.85-7.59,10.4-0.5,13.88-.67,28,1.26,41.68,1.76,12.45,6.38,24.5,9.79,36.72,6.68,23.95,16.8,46.37,31.74,66.27C616.91,744.77,632.64,750,648.52,735.54ZM643.39,502c0.23-9.67-.36-19.38-0.91-29.06q-1.05-18.63-2.57-37.26c-0.93-11.14-2.61-22.23-3.21-33.39-1.07-19.83-1.57-39.69-2.31-59.54l-1.39-.29c-1.79,11.93-3.93,23.82-5.31,35.8-2.56,22.21-4,44.57-7.2,66.68a324.31,324.31,0,0,0-3.3,60.25c0.29,6.95,1.48,13.86,2.33,21.5,7.57-5.67,14.06-9.88,19.68-15A14.84,14.84,0,0,0,643.39,502ZM631.25,777.79c6.37-6.93,5.16-11.19-3.12-15.72-12.9-7-25.76-14.16-38.76-21-10.52-5.53-21.23-10.69-32.9-16.53,0.31,9.15,1.84,17.29-3.91,24.13-3.19,3.8-6.14,7.82-9.43,11.54-13.27,15-31,24-47.62,34.39-9,5.64-19.05,9.63-28.76,14.08-3,1.39-4.19,2.86-3.2,6.2,4.3,14.48,9.76,28.3,21.92,38.22,20.66,16.85,47.21,21.93,68.86-.77a213.63,213.63,0,0,1,23.34-20.93C597.78,815.74,614.14,796.39,631.25,777.79Zm-14.18-58.91c7,7.94,15.21,11.54,25.35,11.76-10.7-8.25-21.62-25.28-26.2-40.08-7.24-23.45-12.3-47-9.78-71.67,0.15-1.51-1.09-3.53-2.27-4.75a107.48,107.48,0,0,1-20.76-31.67,51.48,51.48,0,0,0-2.61-4.62c-0.94,5.81-1.7,11.36-.8,16.62,4.07,24,7.62,48.14,13.3,71.76C597.81,685,603.71,703.66,617.07,718.88ZM627.51,330.1c3.65-26.64,3.17-53.07-3.11-79.29-0.86-3.63-2.28-7.12-3.16-10.74-5.38-22.13-12-43.68-27.23-61.45-0.5-.56-2.22-2.32-2.51-2.53-0.58-.39,1.87,5,2.31,5.75,10.42,17.88,12.45,37.69,12.13,57.65-0.46,28.59-3.73,57-7.73,85.31-3,21.15-5.4,42.47-6.37,63.79-1.37,30-2,60.1-1.34,90.11,0.5,21.25,5.05,42.06,18.31,59.75,2.26,3,5.12,5.61,8.15,8.89,0.39-1.7.7-2.22,0.57-2.6-9.47-27.88-7.9-56.49-5.38-85.08,1.9-21.53,4.4-43,7-64.46C621.68,373.47,624.54,351.78,627.51,330.1Zm-28.33-94.49c0.21-4-1.27-6.85-3.77-9.94a62.36,62.36,0,0,0-25.35-19c-12.64-5.08-25.57-8.16-38.35.45-2.91,2-2.49,2.79-.39,4.84,6.57,6.42,12.84,13.14,19.49,19.47a25.32,25.32,0,0,0,8.41,5.61c8.23,3,16.19,6,22.3,12.82,4.74,5.32,10.29,9.9,16,15.3a48.67,48.67,0,0,0,1.05-6.42C598.85,251,598.79,243.31,599.18,235.61Zm-6,69.33c3-9.78,4.88-18.9,1.31-28.76-4.9-13.57-16.2-21-26.12-29.78-1.26-1.12-3.55-1.06-5.36-1.55C576.22,263.56,585.09,284,593.19,304.94Zm3-89.12c-0.76-17-6.83-31.27-17.17-44s-33.25-19.18-49.33-5.12c-1.66,1.45-3.8,2.36-5.62,3.65-8.61,6.09-16.9,12.55-23.62,19.68,7.43,4.84,14.53,8.82,20.83,13.81,3.55,2.82,5.59,2.46,9,.22a39.7,39.7,0,0,1,12-5.39c16.39-4,30.84,1.19,44.27,10.33C589.81,211.22,593,213.55,596.17,215.82ZM587.82,354.7c1-14.92,6.07-29.77-.78-44.78-5.57-12.19-8.76-25.54-15-37.31-14.67-27.62-35-50.67-59.65-70.08a51.24,51.24,0,0,0-27.25-11.05,228.9,228.9,0,0,0-59.38,2.85c-28.47,5-53.46,17.24-77.17,32.59-16.52,10.7-30.79,24.23-44,39-8.65,9.71-15.47,20.62-19.23,32.56a199.4,199.4,0,0,0-8.84,58.05c-0.15,17.41.3,34.83,1,52.23,0.36,8.86.24,18.26,3.18,26.39a844.35,844.35,0,0,1,31.41,110.56,25,25,0,0,0,10.57,15.76c12.67,8.77,25.13,17.85,37.69,26.77,24.31,17.27,48.14,35.38,75.84,47.11,14.31,6.06,29.2,7.84,44.37,2.67,23.95-8.16,41.93-24.54,58.46-42.76C550.27,583,560.77,570,572,557.78c3.12-3.4,3.81-6.63,3.41-10.76q-1.32-13.34-2.37-26.7c-0.38-4.71-.72-9.44-0.76-14.16-0.14-17.21-1.41-34.52.13-51.58,1.82-20.26,6.16-40.29,9.29-60.43,1.29-8.26,2.27-16.57,3.54-26-5.7,3.1-10.42,5.78-15.24,8.24-3.41,1.74-2.6,7.25-1.19,11.76,0.06,0,4.79,7.37,3.77,6.3-3.37-3.54-8.43-3.87-4,4.76-1.61-1.29-5.78-3.14-4.18-.2l2.87,6.48c-1.64-1.85-3.76-4.61-5.28-3.23a13.19,13.19,0,0,1-4.17,2.68c5.26-3.1,1.48-4.88-5.94-1.25,11-10.92,10.71-14.4,10.35-23-1.88.22-11.13,2.07-15,3.06-4.89,1.49-5.43,3.5-6.66,7.57-1.63,7.58-5.86,11.5-12.38,13.23A43.71,43.71,0,0,1,512,405.66c-10.24-1.26-16.27-7.09-17.82-17.23-1.09-7.11-8.29-2.54-12.17,1,0.18-1.49.37-3,.42-4.48,0-.67.24-2.77-0.4-3.27-2.11-1.67-5.27,5.9-6.19,6.81-1.16,1.13-6.21,12.12-7.21,13.38a26.54,26.54,0,0,0-3.25,5,10.06,10.06,0,0,0-.61,1.83c0.32-5.69,10.5-27.25,13-30.12,2.78-3.15,4.89-6.89,7.49-10.22,7.71-9.93,16.92-18.71,30-18.68a83,83,0,0,1,28.89,5.76,91.56,91.56,0,0,0,30.39,6.49C583.17,362.17,587.47,359.89,587.82,354.7Zm-21.34,16.48a0.21,0.21,0,0,0,0-.36c-2.15-1.37-10.43-4.23-12.17-4.79-10.39-3.33-20.75-6.87-31.36-9.32-13-2-23.24,6.69-23.26,6.71-3.11,2.07-9.64,12.74-9.13,13.13,1.52,1.15,3.53,1.66,5.4,2.36a0.2,0.2,0,0,0,.24-0.29,7.24,7.24,0,0,1-.84-4.05,0.21,0.21,0,0,1,.39-0.08c2.17,4,3.75,3.65,4.54,3.58a0.21,0.21,0,0,0,.17-0.27,9.05,9.05,0,0,1-.49-5.22,0.2,0.2,0,0,1,.37-0.06c1.42,2.33,3.45,5.48,5.47,5.45,0,0,4.79.41,5.08-6.31a0.2,0.2,0,0,1,.37-0.1c2,3,4.39,4.29,6.4,4.46a0.2,0.2,0,0,0,.22-0.22,22.34,22.34,0,0,1,1.36-9.1,0.21,0.21,0,0,1,.4,0c0.47,2.81.83,6.75,3,8.56l0.09,0.05c3.23,1.11,5.45-3.14,7.32-6.48a0.21,0.21,0,0,1,.38.14c-0.66,4.71-2.13,4.59-1.86,8.51a0.19,0.19,0,0,0,0,.13c0.63,0.72,2.8.93,3.32,1H532c4.24-1,5.19-3,7.14-5.87a0.21,0.21,0,0,1,.38.12c-0.18,5.19-2.18,6.43,2.23,5.05,0.27-.08.65-0.35,3.06-3.47a0.21,0.21,0,0,1,.36.19c-1.43,4.32.07,3.28,2,1.64,1.66-1.43,3.69-4.66,4.74-6.43a0.17,0.17,0,0,1,.32.09c0,1.39-.26,4.73-1.87,6.35a0.2,0.2,0,0,0,.18.34C559.14,375.21,559.76,375.23,566.48,371.18ZM548.07,684.91c1.2-24.37,11.81-47.55,7.86-72.65-1.09-6.9-.17-14.11-0.17-21.19-8.66,7.32-15.23,15.51-23.16,22.07-6.36,5.28-6.46,10.79-5.19,17.76,2.94,16.25,8.93,31.43,15.39,46.48,1.13,2.63,2.42,5.18,3.64,7.77Zm2.09-559.56c3.94-2.52,3.95-5.36,1.69-8.79-2-3.11-3.81-6.52-6.35-9.17-7.89-8.22-15-17.74-24.38-23.85-18.36-12-39.45-15.89-61.37-14.58-4.87.29-9.72,1-14.58,1.45L445.35,72a165.09,165.09,0,0,1,62,31.57,103.46,103.46,0,0,1,25.49,29c2,3.54,3.68,4,6.75,1A70.58,70.58,0,0,1,550.16,125.35Zm-2.7,616.92c1.31-3.84,3.56-7.82,3.27-11.59-0.23-3-3-6.69-5.74-8.35-2.89-1.76-7-1.49-10.61-2.1l-1.18,1.65c3.8,6.58,7.54,13.19,11.47,19.68C545,742.17,547.43,742.36,547.46,742.27ZM540.75,753c0.93-.85,1.67-3.11,1.19-4.09a86.26,86.26,0,0,0-7.23-12.78,171.65,171.65,0,0,1-24.9-52.37c-4.23-14.51-7.3-29.37-11-44.54-4.41,1.66-9,3.58-13.66,5.11-16.29,5.33-32.91,7.08-49.07.52-10.32-4.2-19.88-10.29-29.73-15.63-5-2.7-9.82-5.63-15.38-8.84,0,2,0,2.9,0,3.83,0.66,15.37,2.83,30.86,1.69,46.09-2.3,30.85-9.7,60.87-19.14,90.31-1.57,4.89-.35,7.78,3.27,10.9,18.73,16.14,40.88,25.52,64.28,32,8.82,2.45,18.12,2.69,27-1.73,18.06-9,35.73-18.7,52-30.62C527.46,765.8,534,759.23,540.75,753Zm-3.49-366.07c0.88-1.73.57-2.5,0.34-2.36-0.55.33-13.46,0.51-13.48,1.1S535.34,387.42,537.26,386.94Zm-0.36,4.13-0.43-1.22c-0.5.22-12-2.87-12.35-2.51,0,0.22,11,3.58,11.09,4C535.74,391.11,536.38,391.3,536.9,391.07Zm-4,5.55a1.19,1.19,0,0,0-.08-0.61c-0.32-.2-8.78-7.67-9.14-7.81,0.16,0.35,8.35,8.09,8.57,8.41A1.47,1.47,0,0,0,532.88,396.62Zm-2-253.92a3.6,3.6,0,0,0,.36-3.45C526,132,521.34,124.06,514.92,118a156,156,0,0,0-83.78-41.54c-10.17-1.67-20.38-1.7-30.39,1.35-16.63,5.06-33.39,9.74-49.81,15.42-9.72,3.36-18.88,8.34-28.29,12.59l0.92,1.76c1.39-.39,2.83-0.66,4.18-1.18,17-6.53,34.88-8.64,52.82-8.72,29.92-.13,59.07,5,86.65,17,13.69,5.94,27.05,12.8,35.15,26.44,2.79,4.71,5.66,9.37,8.76,13.87,1.2,1.75,2.37,5.12,5.58,1.92C521.43,152.11,526.29,147.51,530.91,142.7Zm-1.39,256.83a6.1,6.1,0,0,0,2.06-.81c-0.76-.68-7.81-9.39-8.3-9.39S529.08,399.5,529.52,399.53Zm-3.3,2.24a5.82,5.82,0,0,0,2.06-.81c-0.76-.68-5.89-11.37-6.37-11.37s0.47,1.09-.05,1.53C522.27,391.49,525.79,401.75,526.22,401.77Zm-3.84.56c-0.38-.58-2.15-10.82-2.51-11.36-0.58.2,0.4,10,0,10.13a4.6,4.6,0,0,0,.86,1.79C521,403.09,521.81,402.54,522.38,402.33Zm-4.29.27c-0.12-.14-0.12-11.5-0.25-11.51s-0.42,11.33-.56,11.45a1,1,0,0,0,.38.39A1,1,0,0,0,518.09,402.6Zm-7.21-1.74c-0.39-.58,4.8-9.55,4.44-10.09-0.57.19-6.56,8.72-7,8.86a4.74,4.74,0,0,0,.86,1.79C509.47,401.61,510.31,401.07,510.88,400.86Zm3.24-9.74a1.15,1.15,0,0,1,0-.53c-0.64.33-7.95,5.58-8.49,6a4.17,4.17,0,0,0,.5,1.27C506.71,397.51,513.51,391.52,514.12,391.12Zm-10.23,5.51c1.6-.6,9.3-6.94,9.2-7.26-1.63.53-8.58,5.75-10.21,6.28C503,396,503.75,396.24,503.89,396.63Zm-0.61-3.25c1.6-.6,9.2-4.81,9.09-5.14-1.62.54-9.45,4.26-11.08,4.79C501.43,393.42,503.14,393,503.28,393.38Zm3.61-225.16c1.52-1.94,2.85-5.87,1.91-7.63-8.88-16.61-20.92-30-38.73-37.76-21.94-9.55-44.92-14.74-68.54-17.12-15.41-1.56-30.68-1.49-45.59,4.82-15.34,6.48-28.73,15.76-41.87,25.61-5.76,4.31-11.86,8.34-16.94,13.37a338.23,338.23,0,0,0-23.06,25.26c-10.44,12.64-20.89,25.34-30.23,38.78-7.32,10.55-13.24,22.11-19.29,33.48-8,15-15.84,30.14-23,45.55-3.83,8.22-6.07,17.18-9.15,25.76-8.12,22.66-11.63,45.66-5.1,71,1.64-4.56,2.74-7.56,3.8-10.56,10-28.36,18.18-57.43,33.09-83.92,4.72-8.39,6.51-18.43,11.3-26.75,11.05-19.18,23.2-37.72,34.74-56.63,7.61-12.48,13.3-26.28,24.17-36.52,10.46-9.85,20.65-20.19,32.17-28.67,14.48-10.64,31.15-17.4,48.27-23.16,30.21-10.17,62.66-1.48,83.26,20,11.22,11.69,21.67,24.67,27.15,40.64,1.89,5.52,3.12,5.49,6.9,1.18C497,179.36,502.3,174.06,506.89,168.22Zm5.26,218.37c-0.19,0-7.22,1.1-7.37,1.22,0.13,0.14-4.65.38-4.52,0.39s0.17,2,.31,1.89S512.15,386.64,512.15,386.59Zm-7.89,3.54a0.48,0.48,0,1,0-1-.08A0.48,0.48,0,1,0,504.26,390.13ZM481,62.1a9.61,9.61,0,0,0-5.1-3c-20.65-3.09-41.27-7.94-62-8.5-18.7-.51-37.7,2.79-56.28,6-33.88,5.91-63.78,21.27-91,41.85a192.68,192.68,0,0,0-33,32.21c-17.18,21-30.83,43.44-34.9,70.69-1.39,9.27-2.89,28.07-3,28.1,12-22.73,27.2-43.16,43.87-62.73,13.51-15.86,29.35-28.92,45.28-42a198.19,198.19,0,0,1,20.56-14.88c10-6.3,20.09-12.86,30.85-17.7C360.8,81.18,386.65,74,413,69c14.55-2.77,29.39-4.1,44.15-5.67C465,62.46,473,62.48,481,62.1Zm-0.47,124.46c-6.16-18.29-16.93-32.81-29.8-44.44-21.54-19.47-47.49-23.85-75.25-13.81-25.35,9.17-48.42,22-67.84,41.12-16.67,16.44-28.5,35.88-36.87,57.4-5,13-8.5,26.58-12.66,39.91l1.79,0.69a32,32,0,0,0,2.53-3.53c13.11-24.24,30.22-45.35,48.9-65.56,17.77-19.21,38.34-32.39,64.13-37a69.59,69.59,0,0,1,35.37,2.55c11.27,3.86,19.1,12.3,27.87,19.56,1.6,1.33,3.67,2.89,5.55,2.93C455.92,186.69,467.63,186.56,480.51,186.56ZM418.26,861.73c12.36-15.82,23.93-32.26,36.84-49.85-33.89-5.15-61.6-18.81-86.69-39.64-9.18,22.07-17.3,43.64-22.86,66.11-0.29,1.19,1.35,3.39,2.65,4.36a161.72,161.72,0,0,0,14.23,9.59c11.58,6.76,23,14,36.78,15.66C406.59,868.83,413.8,867.44,418.26,861.73Zm17.09-675.38c-7.33-5.73-13.44-12.11-22-15.21-14.52-5.27-29.07-5.18-44-1.26a97.27,97.27,0,0,0-46.2,27l1,1.25c1.15-.42,2.3-0.83,3.44-1.26,19.79-7.41,39.54-10,59.37,0a9.7,9.7,0,0,0,6.24.63C406.8,194.06,420.39,190.34,435.35,186.35Zm-40.2,773.73c2.6-13.67.24-26.17-7.93-37.39-0.94-1.3-4.11-2.32-5.51-1.72-9.58,4-19,8.56-29.09,13.24,14.56,12.55,18.84,29,19.39,47.2C383.18,977.3,392.74,972.77,395.15,960.08ZM372.42,608q6.35,13.25,12.67,26.48c-0.28-6.11-2-11.88-3.26-17.75C380.66,611.42,371.78,607.6,372.42,608Zm5.46,100c3.4-24.31,5.46-48.51-1.11-72.62-0.81-3-3.36-9.52-4.38-12.45-0.51.17-.13,3.29-0.18,4.16a27.78,27.78,0,0,0,.22,3.66c4.34,22.75,1.66,45-4.14,67.16-6,23.1-11.67,46.28-19.56,68.87-3.68,10.54-5.63,21.69-9.16,32.3-10,30.1-16.12,61.06-20.71,92.33-1.92,13.1,1.09,25.86,7.1,37.62,1.33,2.59,5.62,6,7.62,5.49,6.42-1.69,12.4-5,19.22-8-13-10.41-15.88-15.34-18.18-29.74-3.72-23.21,0-45.79,7-67.76,6.41-20.07,14.17-39.72,21.4-59.53A299.41,299.41,0,0,0,377.88,708ZM358.44,988.46c4.21-1.91,6.5-5,6.06-9.28-0.74-7.33-1-15-3.61-21.76-2.52-6.5-7.48-12.16-12-17.69-1.21-1.5-5-2.23-7-1.54-10.77,3.7-21.35,7.95-32.4,12.17a9.9,9.9,0,0,0,1,2.21c12.22,12.62,19.25,27.56,20.09,45.2,0.18,3.77,2,3.31,4.36,2.13C342.76,996.06,350.5,992.05,358.44,988.46ZM382.88,201.2c-23.16-11.86-65.25.53-83.48,20.95,0.14,0.1,5.36-.76,8-0.95,9.41-.67,19.18-3.17,28.12-1.42,8.41,1.65,14.61.65,20.86-4.35,0.74-.6,1.87-0.7,2.74-1.18C366.89,210,374.63,205.73,382.88,201.2Zm-46.35,27.69a38.23,38.23,0,0,0,3.63-3.77c-3.29-.37-5.37-0.8-7.46-0.8-23.87,0-44.64,5.66-56.45,29.31-6.54,13.1-14,25.71-21.06,38.58-2.25,4.13-1.89,17.17.55,21.89a147.61,147.61,0,0,1,38.63-52.47c5.23-4.59,10.3-9.39,15.82-13.61C318.81,241.43,327.76,235.28,336.53,228.89Zm0.37,460.67a193,193,0,0,0,1-46.87c-1.37-13.42-6.23-26.59-10.44-39.58-2.54-7.86-6.76-15.18-10.22-22.74l-2,.67c0.52,3.8,1.17,7.58,1.53,11.39,1.65,17.58,3.28,35.17,4.77,52.76a143,143,0,0,1,.61,17.06c-0.29,8.43-.86,16.87-1.79,25.25-1.87,16.8-2.82,33.84-6.39,50.29-6.54,30.1-21.58,56.65-38.62,82-9.43,14-20.45,27-29.57,41.14-7,10.84-12.1,22.87-18,34.4-12.6,24.66-14.53,50.69-7.22,76.86,7.2,25.71,25.3,41.62,50.84,49,12.57,3.66,23.16-2.09,26.78-14.39,4.83-16.42-2.41-33.68-17.93-40.86-3.45-1.59-8.41-1.34-12.23-.31-5.3,1.42-6.63,5.5-4.74,10.57,1.79,4.8,4.78,6.78,9.88,4.39,1.13-.52,2.65-0.2,5.05-0.31-3.45,5.3-7.34,7.05-12.45,6.15s-7.95-4.25-8.86-9-1-9.49,4-12.57c4.08-2.51,8-5.23,12.13-7.91-16.2-11.32-20-22.57-15.06-41.75,5.44-21.09,13.86-41.48,21.85-61.83,6.46-16.43,15.18-32,21.2-48.56C314.82,767,331.07,729.77,336.9,689.56ZM318.42,125.35q11.4-7.34,22.83-14.62c-15.09,4-30.26,7.84-43.17,17.34a61.21,61.21,0,0,1-6.41,3.68c-4.45,2.5-9.11,4.7-13.31,7.57a76.54,76.54,0,0,0-9.51,8.34C262.23,154,255.18,160,249.28,167c-10.27,12.13-20.66,24.31-29.45,37.5-13.73,20.58-28.35,41-31.43,66.7-0.5,4.2-1.27,8.36-1.59,12.57-0.72,9.55-1.24,19.12-1.84,28.68l1.3,0.23c1.34-4.13,2.4-8.38,4.06-12.38a540.9,540.9,0,0,1,67-116.66C274.33,160.93,294.32,140.85,318.42,125.35Zm5.47,876.34c1.88-17.08-5.61-30.84-16.19-43.14-2-2.38-6.58-4-9.75-3.69-4.69.46-9.18,3-15.77,5.3,23,12.5,27.43,30.5,19,54.21,8.13-3.5,14.73-6.25,21.2-9.27C323.26,1004.7,323.76,1002.9,323.89,1001.69Zm-32.29-220-1.07-1.14c-4.18,3-8.21,6.17-12.57,8.86-3.39,2.09-3.47,4.32-1.47,7.26,1.07,1.56,2.09,3.16,3.52,5.34ZM278.3,728c2.41-23.43,2.55-46.5-3.63-69.58-8.31-31.08-15.4-62.49-23.36-93.67-4.6-18-9.9-35.91-14.82-53.87-5.9-21.53-11.45-43.16-17.68-64.59-6.45-22.16-10.52-44.58-9.63-67.71,0.42-11.18,1.46-22.34,2.22-33.5l-1.6-.5c-3.31,9.31-6.68,18.6-9.92,27.92-5.57,16-9.55,31.94-7.56,49.4,2.46,21.63,5.38,43,13.57,63.29,8.56,21.23,17.69,42.24,25.58,63.72,8.72,23.75,16.67,47.81,24.29,71.94,6.43,20.37,10.47,41.11,7.57,62.81-1.17,8.75-.45,17.79-0.22,26.68,0.29,11.29-7.85,22.51-18.61,25.08-13.9,3.33-26.26-1.68-30.69-20.14-1.27-5.27-2.71-10.64,0-16.09,2.26-4.53,8.61-8.34,12.86-6.76,1.49,0.55,2.44,2.52,3.64,3.85-1.49.21-3.07,0.84-4.45,0.54-3-.65-5.29-0.85-6.53,2.79-2.76,8,1,22.88,7.77,28,3.91,2.94,8,6,13.62,4.76,10.15-2.18,16.22-8.69,16.2-19.2-0.07-26.84-16.85-45.66-42.49-51.36-10.38-2.3-16.58,1.94-18.1,12.57-1.13,7.93-1.58,16.55.3,24.21,5.87,24,22.65,38.56,44.85,47.43,8.31,3.32,16.88,1.91,24.82-1.49C273.28,741.51,277.44,736.32,278.3,728Zm-5.42,83.55c5.09-2,5.57-4,2.57-8.75a23.44,23.44,0,0,1-2.89-6c-0.83-2.92-2.14-3.18-4.88-2.3-6.11,2-12.37,3.49-19,5.31a40.47,40.47,0,0,0,2,6.46c3.87,8.16,8.84,10,17.22,6.63C269.48,812.27,271.29,812.19,272.88,811.55Zm-3.41-52.25c2.56-3.33,3.5-7.91,5.88-13.57-4,2-6.09,3.58-8.39,4-7.5,1.34-15.38,4.09-22.56,2.92-16-2.62-28.89-12.34-39.34-24.25-13.69-15.6-19.52-34-13.88-56.21-2,1.29-2.69,1.56-3.13,2.07-20.54,24-21.93,58.33-2.91,85,9.79,13.72,22.73,23.64,37.45,31.43,9.62,5.08,15.15,5.07,23-2.87C254.27,779,261.91,769.12,269.47,759.3Zm-13,77.18L268.77,820l-16.48,6.21Zm-1.8-736c3.13-2.68,9.29-7.2,8.13-6.91h0c-3,1.7-6.23,3.06-8.92,5.14-23.54,18.16-45.87,37.48-63.58,61.79-15.17,20.82-28.23,42.7-37.35,66.77-9.65,25.45-10.7,52.51-13.16,79.2-1.51,16.31-3.74,32.15-13.34,46-6.33,9.14-18.06,11.45-26.88,5.26-7.31-5.14-8.08-18.08-1.57-26.25,4.53-5.68,12-5,15.17,1.53,0.68,1.41.06,3.44,0,5.19a34.13,34.13,0,0,0-4-2.06c-1.75-.64-4.29-2-5.31-1.32-4.56,3.08-4.14,14.4.35,19.21,3.62,3.87,10.29,3.36,14.27-2.22a81.4,81.4,0,0,0,8.93-17.11,27,27,0,0,0,1.52-11.54C128,310.73,106,303.13,95,311.4c-17.28,13-23.49,37.22-16.4,58.43,3.1,9.28,9.58,15.07,18.12,18.64,13.8,5.77,35.9-.3,45.43-12.17a16.94,16.94,0,0,0,3.54-6.4c2.3-10.14,5-20.28,6.16-30.57,3-25.65,5.17-51.39,7.67-77.09,2.67-27.49,12.12-52.69,26.48-76,7.41-12,16-23.33,23.7-35.22,12.23-19,27.64-35,44.33-50ZM257.83,684c1.2-40.31-10.92-77.61-25.86-114.3-1.41,31.21-8.8,60.32-27.15,86.56C228.23,655.68,244.44,666.65,257.83,684Zm-4.56,135.3c0.07-.72.15-1.43,0.23-2.15-1.54-1.24-3-2.6-4.62-3.71-4.83-3.33-.92-11.58-6.62-13.42-5-1.61-10.76-.75-16.19-1a4.71,4.71,0,0,1-1.41-.48c-4.21-1.76-6,.63-5.34,4.12a109.42,109.42,0,0,0,5.11,17.75c2,5.16,6.37,6.64,11.6,4.91C241.81,823.37,247.52,821.28,253.27,819.27ZM250,844.41c2.35-3.75,2.06-13.2-1-14.4-2.92-1.13-6.84.28-10.31,0.69a1.62,1.62,0,0,0-1.09.62c2.38,6.86,4.65,13.42,7,20.12A78.42,78.42,0,0,0,250,844.41Zm-29-290.65c-0.13-6.56-.35-13-2.37-18.86-4.28-12.4-9.55-24.45-14.31-36.68-4.27-10.95-8.4-22-12.31-32.19l-23.09,64.34C193.71,521.57,208.12,535.09,220.94,553.76Zm2.16,275.58c-2.71-5.51-6.15-10.36-7.44-15.72s-0.29-11.29-.64-17a6.14,6.14,0,0,0-2.38-4.13c-5-3.41-10.3-6.5-16.92-10.59,0,24.56.95,47.62,11.82,70.7C215.09,831.73,215.09,831.73,223.1,829.34Zm-8.3-249.11c1.14-2.42,2.58-5.33,2.2-7.75-1.95-12.44-5.42-24.57-15.87-32.68-13.91-10.79-28-11.77-36.4,5.08,5.24,1.52,10.76,1.94,14.85,4.57,9.34,6,16.57,14.11,19.48,25.36,2,7.65,4.21,15.23,6.55,23.63C208.85,592.07,212,586.23,214.8,580.23ZM203,879c9.29,1.4,12.41-5.55,16.75-11.88-11.54-4.76-19.75-11.69-23.32-23.88-5.25-17.93-6.19-36.19-5.73-54.64,0.17-7.13.92-13.66-6-19.23-4.8-3.87-7.34-10.53-10.89-15.94-1-1.52-2-3.06-3.55-5.51-0.62,6.69-1.19,12.09-1.62,17.5-1.83,23.42-1.07,46.77,3.65,69.78a141.5,141.5,0,0,0,9.3,28.28C185.46,872.29,193.05,877.45,203,879Zm-4.5-284.43-1.38-1.1c-9.94,12.2-22.33,14.18-37,11.88-16-2.5-22.61-14.65-31.22-27.53-2.86,20.34,7.25,32.16,18.66,42.28,2.25,2,5.79,3.13,8.87,3.51a183,183,0,0,0,18.6,1c8.93,0.19,16.73-3.15,20.35-11.26C197.83,607.68,197.51,600.82,198.45,594.52Zm-3.62-8.64a8,8,0,0,0,.09-4.33c-3.23-12.92-10.32-23.16-22-29.77-4.19-2.37-8.73-2-12.21,1.85-4.54,5.11-5.65,19-2.19,24.9,4.15,7.11,7,7.15,12,.53,0.75-1,2.77-1.05,4.2-1.53,0.18,1.31.88,2.83,0.46,3.91-3.1,8-14,9.21-19.6,2.65-7-8.16-5.92-17.29-2.92-26.05,7.4-21.58,15.93-42.77,23.27-64.36,6.93-20.37,14.07-40.78,10.29-63.07-2.53-14.93-4.15-30-6.26-45-0.17-1.15-1-2.2-2-4.18-2.37,17.23-4.47,33.25-6.79,49.23-1.32,9.1-2.55,18.25-4.63,27.18-3,13-5.78,26.24-10.46,38.7-5.4,14.39-12.84,28-19.26,42-7.82,17.09-6.48,32.73,5.57,48,8,10.16,17.2,15.28,30,14.88C181.18,601.19,191.85,594.15,194.83,585.88ZM189.4,219.56c1.66-11.92,5.91-35.54,5.91-35.89-5.48,9.66-11.72,19-16.29,29-9.58,21.11-13.33,43.75-15.4,66.68-1.14,12.66-1.78,25.38-3.21,38q-3.06,27-7,54c-3.77,25.51-3.86,51.38-11.44,76.58-7.78,25.91-12.68,52.72-18.15,79.29-2.45,11.88-3.52,24.09-4.56,36.21a32.48,32.48,0,0,0,2.83,15.83,16,16,0,0,0,1.15-5.29c2-16.64,5.45-32.83,13.32-47.91,4.93-9.45,9.32-19.22,13.48-29,7.16-16.9,10.06-34.85,12.48-52.93,3.8-28.36,8.4-56.64,11.7-85.06,3.19-27.43,4.9-55,7.78-82.49C184,257.51,186.75,238.54,189.4,219.56ZM173.53,650c3.94-6.21,7.66-12.57,12.07-19.91-4.76.36-8.39,0.86-12,.86C161,631,148,630.62,139,620.24c-8.7-10-17.52-19.89-21.82-33.32-3.6-11.26-5.49-22.45-3.81-33.74,3-19.88,7-39.61,11.09-59.31,3.62-17.52,7.85-34.92,12-53.26-4,0-7.31.52-10.38-.12-4-.84-5.17.84-6.25,4.24-4.08,12.79-8.53,25.46-12.69,38.23-5.4,16.55-11.65,32.92-15.61,49.82-2.8,11.93-2.42,24.62-3.46,37-1.94,22.84,3.09,43.35,18.84,60.87,17.12,19,38.75,24,63,21.65A5.43,5.43,0,0,0,173.53,650Zm-5.06,7.71a79.22,79.22,0,0,1-45.79-7.3c-20.85-9.94-32.76-27-38.15-48-5.65-22.1-3.15-44.89.5-67.28A139,139,0,0,1,90,516c3-9.67,6.45-19.23,9.74-28.82,4.75-13.88,9.65-27.7,14.21-41.64,0.86-2.62,1.72-6.83.39-8.27-4.14-4.47-9.33-7.95-14.11-11.81,0.33,1.18-.39,3.94-0.77,6.76-3.35,25.16-12.29,48.57-21.56,72-8.56,21.68-17,43.55-17.8,67.39S61.35,619.07,74,640a252.2,252.2,0,0,0,26.33,36.06c9.67,11,21.31,20.26,35.54,25.39,9.87,3.56,9.84,3.58,13.46-6a41.5,41.5,0,0,1,2.06-4C157,680.47,162.53,669.44,168.47,657.7ZM140,400.71c4.61-4.84,7.62-10.94,5.43-19.07-20,13.43-40.26,20.78-62.52,4.87,2.81,11.33,7.84,20.46,15.68,27.87,5.74,5.43,12.43,5.4,19.51,2.68C126.93,413.65,133.69,407.33,140,400.71Zm4.37,5.77-1.44-.95c-9.2,9-19.25,16.45-32.32,18.34l-1,2.05c4.73,3.33,9.1,7.46,14.28,9.79,7.11,3.2,14.78.28,16.16-5.57C141.91,422.35,143,414.38,144.35,406.48ZM141.89,716c1.33-3.35.94-5.08-2.95-6.64-8.94-3.59-17.55-8-27.36-12.52-2.45,7.41-5.66,15-7.43,22.88-2.76,12.33-4.69,24.86-6.73,37.35-3.94,24.13-3.06,47.91,4.63,71.38a109.58,109.58,0,0,0,27.16,43.82,37.91,37.91,0,0,0-1.49-6.57c-2.74-11.29-6.39-22.47-7.85-33.93-1.94-15.25.72-30.39,3-45.66A312.06,312.06,0,0,1,141.89,716Z"/><path class="cls-2" d="M710,205.76l-0.22,73.41a451.74,451.74,0,0,0-45.41-124.86C682.71,168.74,695.06,188.26,710,205.76Z"/><path class="cls-2" d="M709.73,299.42L708.3,792.91a79.2,79.2,0,0,1-6.65,8.75c-1.8,1.94-5.56,4.2-7.46,3.53-7.11-2.49-13.83-6.13-21.85-9.89,4.18-2.8,6.74-4.78,9.53-6.34,9.38-5.25,12.33-13.88,12.68-23.82,0.22-6.23.16-12.48,0.08-18.71-0.49-36.65-.69-73.3-1.64-109.93-0.87-33.38-3.21-66.72-3.7-100.1-0.44-29.33,1-58.68,1.24-88,0.26-39.38-4.21-78.53-6.39-117.79-1.39-24.89-1.56-49.84-2.59-74.76-0.53-12.61-1.29-25.26-2.82-37.78-1.27-10.44-3.81-20.72-5.79-31.07C690.42,222.77,699.48,261.3,709.73,299.42Z"/><path class="cls-2" d="M708.27,802.59l0,11.06a31.26,31.26,0,0,0-6.45-4.62A61.65,61.65,0,0,0,708.27,802.59Z"/><path class="cls-3" d="M708.22,820l-0.82,280.11-37,.14c-0.8-7.14,2.47-12.85,6.32-18.76,6.28-9.64,9.06-20.36,6.26-31.93-1.58-6.48-8.84-40.76-10.65-51.47-1.24-7.31-2.26-14.66-3.64-21.94-0.21-1.1-1.86-1.93-2.85-2.88-0.39,1.23-1.27,2.54-1.1,3.69,3.39,22.31,4.46,39,10.55,66.84,3.57,16.75.62,25.85-5.8,37.36-3.67,6.57-8.72,12.38-13.93,19.14L259,1101.77a1.56,1.56,0,0,0-.45-0.85c-12.42-7.52-21-18.9-29.68-30a12.48,12.48,0,0,1-2.11-7.55c0.49-15.15,1.35-30.29,2-45.43,0.05-1.42-.76-2.88-1.17-4.31-0.76,1.37-2,2.68-2.21,4.14-1.53,9.8-2.82,19.64-4.23,29.47-1.92,13.35-.65,25.81,9.55,36a27,27,0,0,1,4.67,6.7c1.74,3.36,3,7,4.61,10.4a7.21,7.21,0,0,0,1,1.53l-122.56.45v-0.12c0.65-1.28,1.88-2.56,1.88-3.84-0.07-19.14-1-38.32-.31-57.43,0.75-21.33,2-42.72,4.66-63.88,2.84-22.42,7.6-44.6,11.57-66.87,1-5.63,2.26-11.23,3.4-16.84l1.5-.52c19.85,28.22,45.22,30.29,74.18,16.11a15.62,15.62,0,0,1-.38,3.26c-7.25,20.55-5.61,41.35-.49,61.83,4.82,19.27,17.3,33.87,34,43.69,10.67,6.27,22.36,11.11,36.21,8.84,7-1.15,12.51-4.16,18.55-6.73,11.92-5.06,23.88-10,35.65-15.42q25.46-11.67,50.6-24a18,18,0,0,0,7.38-6.93c8.81-15.91,8-31.94-.6-47.7-7-12.82-11.26-14.05-24.4-7.49-0.44.22-.91,0.4-1.36,0.62-8.37,4.15-12,4-18.68-2.52a34.39,34.39,0,0,1-8.14-12.24c-5.78-15.88-4-32.36-2.32-48.69,0.73-7.24,2.84-7.87,8.89-3.3a126.26,126.26,0,0,0,35.91,19.5c14.46,4.87,27.63,2.94,38.25-8.81,5.46-6,10.71-12.34,15.58-18.87,6.05-8.1,11.61-16.55,17.68-25.29a10.86,10.86,0,0,1,1.22,1.42c0.83,2.09,1.69,4.16,2.43,6.28,8.15,23.52,23.42,39.41,48.09,45.6,10.33,2.59,20.66,2,29.93-2.22,7.93-3.63,15.07-9.45,21.8-15.2,24.24-20.74,47.85-42.17,68.59-66.54,5.5-6.45,5.61-6.34,13-2.36,2.85,1.54,5.73,3,8.6,4.53Z"/><path class="cls-2" d="M687.64,693.46c0.37,25.4-.3,50.82-0.51,76.23,0,5.5-1.11,10.66-6.7,13.12s-10.28,0-14.46-3.38c-9.46-7.72-15.83-17.31-16.2-29.88-0.06-2.24,2-4.55,3.07-6.82,2.19,1.31,4.83,2.21,6.45,4,2.3,2.57,3.74,5.88,5.77,8.71,0.7,1,2.08,1.46,3.15,2.16,0.51-1.43,1.88-3.31,1.4-4.22-3-5.59-6.33-11-9.86-16.9,4.5-6.6,9.57-14,14.57-21.37,4.36-6.47,5.81-13.71,5.27-21.37-0.51-7.16-4.3-11.54-9.45-11.24-4.75.28-8.57,6-8.17,12.52,0.06,1,1,1.89,1.51,2.84a11.44,11.44,0,0,0,2.8-2c0.55-.72.24-2.08,0.77-2.83a49.85,49.85,0,0,1,3.78-4.33c1,1.55,2.67,3.07,2.71,4.65a40.26,40.26,0,0,1-1,11.77c-1.48,5.28-6,6.78-9.52,2.71-4.81-5.53-9.55-11.7-12.14-18.44-6.45-16.85-4.33-34.32-1.06-51.58,0.25-1.37,2.41-3,4-3.4,8.88-2.39,14.21-7.69,15.61-17,1-6.6,2.71-13.11,3.66-19.72,2.55-17.71,5-35.44,7.21-53.19a17.66,17.66,0,0,0,.13-2.24l2.9,0.07c-0.13,5-.21,10-0.15,15,0.24,18.38,1.16,36.76,1.8,55.14C685.85,639.5,687.24,666.47,687.64,693.46Z"/><path class="cls-2" d="M683.85,515.62c0,8.91-.36,17.83-0.59,26.74l-2.9-.07c0-11.79-9.58-32.29-21.77-34.24-9.3-1.48-8.61-6.38-9-13.4-1.83-30.27-4.57-60.48-6.81-90.73-0.48-6.45-.13-13-0.46-19.43-1.34-26.34-2.47-52.7-4.31-79-1.2-17.12-1.66-34.61-5.79-51.1-4.61-18.43-8.91-37.14-17.36-54.64a104.72,104.72,0,0,0-24.26-32.61A47.86,47.86,0,0,0,562.21,155a14.5,14.5,0,0,1-3.56-1c-0.37-.13-0.58-0.72-1.23-1.61,24.57-4.76,45.16.9,60,21.49,16.77,23.27,28.17,49.1,35.38,76.89,7.32,28.2,15.39,56.21,22.62,84.44,2.26,8.84,2.85,18.12,4.19,27.2,3.87,26.27,3.5,52.72,3.55,79.17C683.22,466.28,683.8,491,683.85,515.62Z"/><path d="M682.94,1049.58c2.8,11.57,0,22.29-6.26,31.93-3.85,5.91-7.12,11.62-6.32,18.76l-14.84,0c5.21-6.76,10.26-12.57,13.93-19.14,6.42-11.51,9.37-20.61,5.8-37.36-6.09-27.85-7.16-44.53-10.55-66.84-0.17-1.15.71-2.46,1.1-3.69,1,1,2.64,1.78,2.85,2.88,1.38,7.28,2.4,14.63,3.64,21.94C674.1,1008.82,681.36,1043.1,682.94,1049.58Z"/><path class="cls-4" d="M677.09,305.22c0,0.73-.22,1.46-1.55,2.69-1-2.69-2.25-5.33-3-8.1-6-22.27-11.33-44.76-18.07-66.82-7.53-24.68-18.92-47.74-35.41-67.73-13.5-16.37-32.19-20.56-52.55-19.27-15.21,1-27.95,8.2-40.54,15.87-2.5,1.52-8.57,4.32-8.34,3.47,4.59-5.42,8.89-11.14,13.85-16.21,13.31-13.58,28.24-25.24,46-32.32,12.61-5,25.71-3.46,38.85,0,24,6.32,36.58,23.46,42.89,45.48s10.65,44.92,15.78,67.44a34,34,0,0,1,.61,6.7Q676.39,270.83,677.09,305.22Z"/><path class="cls-2" d="M671.66,551.78c0.21,27.63-17.65,38.26-41.48,28.87-13.53-5.33-22.8-15.86-31.13-27.12-11.55-15.61-16.67-33.76-19.25-52.69-3.26-23.87-2-47.62,2.69-71.22a4,4,0,0,1,2.33-2.92c0,9,.27,17.94-0.05,26.89-1.07,30.27.63,59.8,17.72,86.46,7.67,12,29.93,26.51,49.71,22.64,4.47-.88,8.64-3.59,12.76-5.81C667.28,555.63,669.21,553.67,671.66,551.78Z"/><path class="cls-2" d="M670.69,528.75c5.38,20.26-11.89,31.32-25.94,29.72-12.71-1.44-20.81-8.29-21.68-21-0.47-6.86,4.66-11.55,11.42-14.93,1.36,12.35,9.26,17.94,19.79,21.09,4.58,1.37,7.77,0,10.18-3.89a9.78,9.78,0,0,0,1.18-2.83,13.53,13.53,0,0,0-2.17-11.2c-2.74-3.4-4-3.63-9-2,2.61,3,6.13,5.54,7.62,9a7,7,0,0,1,.75,4c-0.4,2-2.54,2.74-6.07,2.27a19.83,19.83,0,0,1-17-18.87c-0.12-5,4.23-8.76,10.1-8.7C659.56,511.56,668.07,518.88,670.69,528.75Z"/><path class="cls-2" d="M669.48,581.19c-2.64,13.77-4.59,26.79-7.79,39.49-2.05,8.13-6,8-14.17,7.91-35.48-.58-65-46.78-66.6-81.42-0.2-4.35-.77-8.68.08-13.45,0.92,2.17,1.8,4.35,2.76,6.5,7.53,17,18.28,31.42,34.11,41.46,10.11,6.41,21.2,10.56,33.38,7.36C656.89,587.56,662.1,584.44,669.48,581.19Z"/><path class="cls-2" d="M666.09,786.25c1.36,0.87,2.17,2.59,3.23,3.92-1.81.31-3.65,1-5.43,0.8-1.36-.12-2.64-1.21-3.95-1.89-5.06-2.65-10.05-5.44-15.19-7.92-4-1.91-6.13-3.45-2.39-8.08,2.76-3.42,3.91-5.06,3.19-6.48l2.42-.92c0.43,1.12.85,2.25,1.28,3.37C652.34,777.22,659.14,781.79,666.09,786.25Z"/><path d="M663.47,525.75a13.53,13.53,0,0,1,2.17,11.2l-2.85-.2a7,7,0,0,0-.75-4c-1.49-3.45-5-6-7.62-9C659.51,522.12,660.73,522.35,663.47,525.75Z"/><path class="cls-2" d="M663.25,714.5a4.31,4.31,0,0,1,1.27,4c-2.49,5.73-11.37,8.41-17.29,5.72-9.8-4.46-14.9-13.15-18.92-22.21-7.6-17.12-12.93-35-14.26-53.84-0.57-8-1.24-16.07-1.85-24,10.5,3.33,19.58,6.44,28.81,9,3.64,1,3.23,3.3,3,5.69-0.67,6.17-1.72,12.31-2.32,18.5a75.09,75.09,0,0,0,5.7,37.9C650.8,703,655.69,709.88,663.25,714.5Z"/><path class="cls-2" d="M637,735.54c3.41,0,6.83,0,11.53,0-15.88,14.42-31.61,9.23-43.67-6.83-14.94-19.9-25.06-42.32-31.74-66.27-3.41-12.22-8-24.27-9.79-36.72-1.93-13.7-1.76-27.8-1.26-41.68,0.13-3.55,4.94-6.94,7.59-10.4l1.66,0.47c0.58,6,1.28,12,1.7,18,1.47,20.61,4.48,40.92,10.57,60.74,4.3,14,8.12,28.16,12.16,42.23,3.85,13.37,12.4,23.71,22.13,33A27.43,27.43,0,0,0,637,735.54Z"/><path class="cls-2" d="M648,765.68l-2.42.92c-0.61-1.2-2.55-2.26-6-4.12q-10.5-5.72-20.81-11.76c-1.16-.68-1.91-2.05-2.82-3.2,7.58,2.29,15.13,3.77,22.86.21,3-1.36,3.36.78,4.09,3.27C644.34,756,646.14,760.83,648,765.68Z"/><path class="cls-2" d="M642.48,472.91c0.55,9.68,1.14,19.39.91,29.06a14.84,14.84,0,0,1-4.19,9.65c-5.62,5.16-12.11,9.37-19.68,15-0.85-7.64-2-14.55-2.33-21.5a324.31,324.31,0,0,1,3.3-60.25c3.2-22.11,4.64-44.47,7.2-66.68,1.38-12,3.52-23.87,5.31-35.8l1.39,0.29c0.74,19.85,1.24,39.71,2.31,59.54,0.6,11.16,2.28,22.25,3.21,33.39Q641.46,454.27,642.48,472.91Z"/><path class="cls-1" d="M628.13,762.07c8.28,4.53,9.49,8.79,3.12,15.72-17.11,18.6-33.47,38-53.58,53.62a213.63,213.63,0,0,0-23.34,20.93c-21.65,22.7-48.2,17.62-68.86.77-12.16-9.92-17.62-23.74-21.92-38.22-1-3.34.17-4.81,3.2-6.2,9.71-4.45,19.77-8.44,28.76-14.08,16.59-10.41,34.35-19.37,47.62-34.39,3.29-3.72,6.24-7.74,9.43-11.54,5.75-6.84,4.22-15,3.91-24.13,11.67,5.84,22.38,11,32.9,16.53C602.37,747.91,615.23,755,628.13,762.07Z"/><path class="cls-2" d="M642.42,730.64c-10.14-.22-18.39-3.82-25.35-11.76-13.36-15.22-19.26-33.86-23.77-52.65-5.68-23.62-9.23-47.77-13.3-71.76-0.9-5.26-.14-10.81.8-16.62a51.48,51.48,0,0,1,2.61,4.62,107.48,107.48,0,0,0,20.76,31.67c1.18,1.22,2.42,3.24,2.27,4.75-2.52,24.71,2.54,48.22,9.78,71.67C620.8,705.36,631.72,722.39,642.42,730.64Z"/><path class="cls-2" d="M624.4,250.81c6.28,26.22,6.76,52.65,3.11,79.29-3,21.68-5.83,43.37-8.41,65.1-2.55,21.46-5,42.93-7,64.46-2.52,28.59-4.09,57.2,5.38,85.08,0.13,0.38-.18.9-0.57,2.6-3-3.28-5.89-5.87-8.15-8.89C595.55,520.76,591,500,590.5,478.7c-0.71-30,0-60.11,1.34-90.11,1-21.32,3.39-42.64,6.37-63.79,4-28.34,7.27-56.72,7.73-85.31,0.32-20-1.71-39.77-12.13-57.65-0.44-.76-2.89-6.14-2.31-5.75,0.29,0.21,2,2,2.51,2.53,15.22,17.77,21.85,39.32,27.23,61.45C622.12,243.69,623.54,247.18,624.4,250.81Z"/><path d="M615.68,747.19l0.26,0.33-0.43-.13-3.35-1.2-0.29-.48C614,746.59,615.45,747.11,615.68,747.19Z"/><path class="cls-2" d="M610,742.86a12.58,12.58,0,0,1,1.88,2.85c-8.34-3.38-28-12-35.51-21.1-6.31-7.6-13.18-14.73-19.92-22-3-3.18-3.76-6.59-3.09-10.9,1.86-12,3.25-24.08,5-36.1a15.75,15.75,0,0,1,3.94-8c2.16,6.8,4.64,13.51,6.43,20.4,6.35,24.45,18.81,45.91,32.57,66.7C603.45,737.92,607.15,740.08,610,742.86Z"/><path class="cls-4" d="M595.41,225.67c2.5,3.09,4,5.92,3.77,9.94-0.39,7.7-.33,15.42-0.61,23.12a48.67,48.67,0,0,1-1.05,6.42c-5.71-5.4-11.26-10-16-15.3C575.41,243,567.45,240,559.22,237a25.32,25.32,0,0,1-8.41-5.61c-6.65-6.33-12.92-13.05-19.49-19.47-2.1-2.05-2.52-2.88.39-4.84,12.78-8.61,25.71-5.53,38.35-.45A62.36,62.36,0,0,1,595.41,225.67Z"/><path class="cls-4" d="M594.5,276.18c3.57,9.86,1.73,19-1.31,28.76-8.1-20.92-17-41.38-30.17-60.09,1.81,0.49,4.1.43,5.36,1.55C578.3,255.22,589.6,262.61,594.5,276.18Z"/><path class="cls-4" d="M579,171.83c10.34,12.72,16.41,27,17.17,44-3.2-2.27-6.36-4.6-9.6-6.81-13.43-9.14-27.88-14.34-44.27-10.33a39.7,39.7,0,0,0-12,5.39c-3.42,2.24-5.46,2.6-9-.22-6.3-5-13.4-9-20.83-13.81,6.72-7.13,15-13.59,23.62-19.68,1.82-1.29,4-2.2,5.62-3.65C545.75,152.65,568.69,159.14,579,171.83Z"/><path class="cls-5" d="M361.71,302.88c0.13,0.52.28,3.81-3,2.68s-6.86-1-10.33-1.12c-3.06-.08-6.54,1.4-9.11.38-7.78-3.08-3,2.69-3.14,5.34-2.35-1.26-4.28-3.15-5.68-2.81-1.59.39-2.71,2.75-4.05,4.24-1.18,1.32-2.31,3.67-3.56,3.74-5.85.34-7,7.38-12.75,8.23-2.37.35-5,3.73-6.18,6.33-3,6.49-2.93,6.46-5.69,9.53a13.63,13.63,0,0,0-3.43,6.31c-0.19,1.13,2.93,3.9,3.39,4,3.45-2.62,7.13-5,10.31-7.9,5.12-4.7,9.89-9.77,14.83-14.67,10.44-10.37,26-13.54,39.19-7.16,8.68,4.18,16.87,9.38,25.17,14.3,6.42,3.81,12.58,8.07,19,11.77,4.59,2.61,7.77,1.67,8-2.33,0.37-7.6,0-15.25-.21-22.88,0-1.19-1.25-3.34-1.91-3.34a14.8,14.8,0,0,0-6.38,1.47c-1.08.55-1.5,2.41-2.22,3.69,0,0-1.08-5.56-1.75-9a11.67,11.67,0,0,0-2,1.65c-1,1.62-1.83,3.3-2.74,4.95a26.64,26.64,0,0,0-3-4.2c-0.91-.87-2.36-1.19-3.56-1.76-1.17,4.57-2.56,1.34-4.34.35-1.36-.75-3.32-0.44-5-0.6-0.15-.11-0.68.88-1.13,1.42-1.44-3.15-4.06-4.1-7.31-4.93-2.44-.62-4.46-2.93-6.63-4.54l0,0-0.16-.08,0,0a0,0,0,0,0,0,0h0c-0.2.12-1.9,1.14-2,1A33.09,33.09,0,0,1,361.71,302.88Zm225.33,7c6.85,15,1.78,29.86.78,44.78-0.35,5.19-4.65,7.47-13.21,7.21a91.56,91.56,0,0,1-30.39-6.49,83,83,0,0,0-28.89-5.76c-13.09,0-22.3,8.75-30,18.68-2.6,3.33-4.71,7.07-7.49,10.22-2.54,2.87-12.72,24.43-13,30.12h0a2.52,2.52,0,0,0,.09,2,7.55,7.55,0,0,0,4.48,1.55c4.85,0.28,5.56-2.55,10.42-2.37,0.51,0.16,26.24,6.12,41.25,6,20.57-2.79,26.16-6.28,35.77-10.34,0.39-.2.75-0.4,1.08-0.59a13.19,13.19,0,0,0,4.17-2.68c1.52-1.38,3.64,1.38,5.28,3.23L564.46,399c-1.6-2.94,2.57-1.09,4.18.2-4.48-8.63.58-8.3,4-4.76,1,1.07-3.71-6.27-3.77-6.3-1.41-4.51-2.22-10,1.19-11.76,4.82-2.46,9.54-5.14,15.24-8.24-1.27,9.42-2.25,17.73-3.54,26-3.13,20.14-7.47,40.17-9.29,60.43-1.54,17.06-.27,34.37-0.13,51.58,0,4.72.38,9.45,0.76,14.16q1.06,13.36,2.37,26.7c0.4,4.13-.29,7.36-3.41,10.76C560.77,570,550.27,583,539.09,595.26c-16.53,18.22-34.51,34.6-58.46,42.76-15.17,5.17-30.06,3.39-44.37-2.67-27.7-11.73-51.53-29.84-75.84-47.11-12.56-8.92-25-18-37.69-26.77a25,25,0,0,1-10.57-15.76,844.35,844.35,0,0,0-31.41-110.56c-2.94-8.13-2.82-17.53-3.18-26.39-0.72-17.4-1.17-34.82-1-52.23a199.4,199.4,0,0,1,8.84-58.05c3.76-11.94,10.58-22.85,19.23-32.56,13.16-14.77,27.43-28.3,44-39,23.71-15.35,48.7-27.57,77.17-32.59a228.9,228.9,0,0,1,59.38-2.85,51.24,51.24,0,0,1,27.25,11.05C537,221.94,557.35,245,572,272.61,578.28,284.38,581.47,297.73,587,309.92Zm-4.55,44.74c-0.94-1-1.88-2.08-2.81-3.13-0.46-.52-0.9-1.06-1.35-1.58l-0.15,0,0-.11c0-.16.09-0.33,0.13-0.5a4.23,4.23,0,0,0,.27-1.19c-2.27-.92-4.79-1.4-6.81-2.68-1.15-.72-1.15-3.51-2.26-4-5.21-2.21-8.88-7.34-14.94-7.84-5.12-.43-9.78-3.56-13.54-5.8-6.76-4-15.1,0-20.76-5.85a1.49,1.49,0,0,0-1.4-.17c-3.15,2.69-6.31.82-9.65,0.78-6.55-.08-13.7-0.36-19.7,3.77-0.29.2-1.16-.63-1.79-0.7-2.1-.23-5.56-5.87-5.89,1.42a3.37,3.37,0,0,1-1.37.48c-2-4.77-4.78-1-7.31-.86-4,.2-8-0.15-12-0.27,0.34,4.43.66,8.86,1,13.29a24.92,24.92,0,0,0,.46,3c1.37,6.27,3.23,7,9.35,4.87,31.95-11.19,63.46-11.84,94.19,4.33a57.75,57.75,0,0,0,10.92,4.7C578.59,357,580.67,355.35,582.49,354.66ZM508.22,565.59c2.4-.63,5-2.16,3.3-5.27-0.39-.71-3.29-0.41-4.9,0a85,85,0,0,1-21.41,2.6c-4.24-5.34-16.85-19.65-19.95-22.73-4.78-5.1-9.7-6.21-15.21-4.28a10,10,0,0,1-6.76,0c-8.2-3.65-11.57-2.13-18.06,6.47,0.86-.27-8.43,10.66-15.58,20.92h0c-5.92,1.18-12.27.62-18.74,0.94,3.78,4.94,7.56,7.08,14,5.65,3.6-.81,7.23-1.67,10.82-2.65,3.45,3.52,12.68,11.92,13.06,12.46,3.22,4.53,17.88,8.72,25.3,6.76,4.63-1.34,28.16-15.37,32.44-17.86A78.41,78.41,0,0,0,508.22,565.59Zm-28.6-56c7.36-1.6,12.19-7.92,9.8-14.84-2.16-6.3-7-11.69-10.93-17.34-0.49-.72-2.21-0.6-3.36-0.86,0,1.36-.53,3,0.07,4,2.2,3.6,5.49,6.69,7,10.52,1.23,3.15,1.83,7.86.28,10.41s-6.12,3.45-9.36,5.06c-0.16-2.83.71-4.16,0.93-5.59,0.31-2,.85-4.56-0.07-6-0.59-1-4-1.24-5.43-.49-5.76,3-11.24,6.55-17.63,10.37,7.82,3.3,11.52-2.94,17.33-3.42-1.35,1.43-2.79,2.8-4,4.34a17.43,17.43,0,0,0-1.66,3.11c1.22,0.6,2.45,1.73,3.66,1.71C470.7,510.5,475.29,510.56,479.62,509.61Zm-32.12-2.35c-0.89-1-1.62-2.25-2.71-2.83-6.34-3.37-12.92-6.32-19.12-9.91-7.35-4.26-9.76-3.57-13.3,4.76-0.87-3-1.79-6.06-2.6-9.12-0.35-1.31-.47-2.69-0.69-4-1.17,1-3.42,2.2-3.32,3.09,0.48,4.27.28,9.76,2.82,12.37,3.89,4,9.6,6.68,15,8.55,2.54,0.88,4.16-2.09,1.79-5-1.71-2.09-3.3-4.28-5-6.43l1.25-1.06c2.53,1.47,5,3.07,7.61,4.39,4.63,2.34,9.27,4.69,14.07,6.63C444.38,509.1,446.1,507.78,447.5,507.26Zm-40.62-97.39c4.34,0.2,5.92-2,3.85-6-1.25-2.43-2.89-4.66-4.73-7.48h0c-1.66-4.7-19.52-34.5-26.67-41.83-10.72-11-38.28-14.34-49.54,2.16-7.49,11-16,21-30.27,24.06-4.05.86-4.11,3.82-1,5.66,3.57,2.11,7.8,3.06,11.66,4.69,1.37,0.57,3.5,1.56,3.6,2.53a40.27,40.27,0,0,0,3.14,12.62c-0.29.14-2.74,4.3-3,4.44,0.16,0,4.25-3.76,3.65-1.39,0,0-1.18,5.3-1.67,8,1.21-.45,5.2-10.89,7.35-3.41,1.58-2.26,3.15-1.94,4.61-1.51,9.75,2.83,12.64,3.28,27.2,3,1.59,0,27.77-4.28,37.23-7.19l0.5-.16a50.09,50.09,0,0,1,5.29-1C403,407.26,402.7,408.6,406.88,409.87Z"/><path d="M579.68,351.53c0.93,1.05,1.87,2.09,2.81,3.13-1.82.69-3.9,2.31-5.41,1.89a57.75,57.75,0,0,1-10.92-4.7c-30.73-16.17-62.24-15.52-94.19-4.33-6.12,2.14-8,1.4-9.35-4.87a24.92,24.92,0,0,1-.46-3c-0.35-4.43-.67-8.86-1-13.29,4,0.12,8,.47,12,0.27,2.53-.14,5.34-3.91,7.31.86a3.37,3.37,0,0,0,1.37-.48c0.33-7.29,3.79-1.65,5.89-1.42,0.63,0.07,1.5.9,1.79,0.7,6-4.13,13.15-3.85,19.7-3.77,3.34,0,6.5,1.91,9.65-.78a1.49,1.49,0,0,1,1.4.17c5.66,5.85,14,1.83,20.76,5.85,3.76,2.24,8.42,5.37,13.54,5.8,6.06,0.5,9.73,5.63,14.94,7.84,1.11,0.47,1.11,3.26,2.26,4,2,1.28,4.54,1.76,6.81,2.68a4.23,4.23,0,0,1-.27,1.19c0,0.17-.09.34-0.13,0.5l0,0.11-0.44-.16c0.13,0.1.26,0.21,0.4,0.3h0l0.18-.08C578.78,350.47,579.22,351,579.68,351.53Z"/><path class="cls-1" d="M578.33,350l-0.18.08,0-.13Z"/><path class="cls-1" d="M578.18,349.9l0,0.13h0A1,1,0,0,1,578.18,349.9Z"/><path class="cls-1" d="M577.74,349.74l0.44,0.16a1,1,0,0,0,0,.14C578,350,577.87,349.84,577.74,349.74Z"/><path class="cls-1" d="M568.59,722.74h0c-0.12.25-.16,0.34-0.14,0.27a0.58,0.58,0,0,0,.07-0.14s0,0,0,0A0.67,0.67,0,0,0,568.59,722.74Z"/><polygon class="cls-1" points="568.59 722.73 568.6 722.74 568.59 722.74 568.59 722.73"/><path class="cls-1" d="M568.59,722.74a0.67,0.67,0,0,1-.06.12,0.61,0.61,0,0,1,.05-0.12h0Z"/><path class="cls-2" d="M568.58,722.73h0c-1.37,0-3,.45-4.08-0.15-9.32-5.3-19.44-7.2-30-7.09-4.18,0-6.19-1.67-7.8-5.38-7.45-17.12-14-34.51-17.08-53-0.45-2.71-1.08-5.38-1.67-8.06-3.38-15.39-3.38-15.39,11.85-22.84,2.51,9.72,4.46,19.62,7.65,29.09,6,17.72,12.39,35.43,23.51,50.66C555.7,712.39,562.65,717.19,568.58,722.73Z"/><path class="cls-1" d="M568.53,722.87a0.58,0.58,0,0,1-.07.14Z"/><path class="cls-6" d="M566.49,370.82a0.21,0.21,0,0,1,0,.36c-6.72,4.05-7.34,4-15.94,5.51a0.2,0.2,0,0,1-.18-0.34c1.61-1.62,1.84-5,1.87-6.35a0.17,0.17,0,0,0-.32-0.09c-1.05,1.77-3.08,5-4.74,6.43-1.91,1.64-3.41,2.68-2-1.64a0.21,0.21,0,0,0-.36-0.19c-2.41,3.12-2.79,3.39-3.06,3.47-4.41,1.38-2.41.14-2.23-5.05a0.21,0.21,0,0,0-.38-0.12c-2,2.9-2.9,4.89-7.14,5.87h-0.08c-0.52-.1-2.69-0.31-3.32-1a0.19,0.19,0,0,1,0-.13c-0.27-3.92,1.2-3.8,1.86-8.51a0.21,0.21,0,0,0-.38-0.14c-1.87,3.34-4.09,7.59-7.32,6.48l-0.09-.05c-2.16-1.81-2.52-5.75-3-8.56a0.21,0.21,0,0,0-.4,0,22.34,22.34,0,0,0-1.36,9.1,0.2,0.2,0,0,1-.22.22c-2-.17-4.36-1.45-6.4-4.46a0.2,0.2,0,0,0-.37.1c-0.29,6.72-5.08,6.31-5.08,6.31-2,0-4.05-3.12-5.47-5.45a0.2,0.2,0,0,0-.37.06,9.05,9.05,0,0,0,.49,5.22,0.21,0.21,0,0,1-.17.27c-0.79.07-2.37,0.38-4.54-3.58a0.21,0.21,0,0,0-.39.08,7.24,7.24,0,0,0,.84,4.05,0.2,0.2,0,0,1-.24.29c-1.87-.7-3.88-1.21-5.4-2.36-0.51-.39,6-11.06,9.13-13.13,0,0,10.28-8.69,23.26-6.71,10.61,2.45,21,6,31.36,9.32C556.06,366.59,564.34,369.45,566.49,370.82Z"/><path class="cls-1" d="M562.29,380.72c0.36,8.58.68,12.06-10.35,23h0c-6.19,3-12.13,6.17-30.89,8.28-14.2.22-32.63-1.76-36.57-7.53a17.83,17.83,0,0,1-2.79-9.4,35.24,35.24,0,0,1,.36-5.64c3.88-3.53,11.08-8.1,12.17-1,1.55,10.14,7.58,16,17.82,17.23a43.71,43.71,0,0,0,16.19-1.08c6.52-1.73,10.75-5.65,12.38-13.23,1.23-4.07,1.77-6.08,6.66-7.57C551.16,382.79,560.41,380.94,562.29,380.72Z"/><path d="M551.94,403.7c7.42-3.63,11.2-1.85,5.94,1.25a24.61,24.61,0,0,1-9.3,2q1.83-1.71,3.34-3.21h0Z"/><path d="M557.88,405c-0.33.19-.69,0.39-1.08,0.59-9.61,4.06-15.2,7.55-35.77,10.34-15,.12-40.74-5.84-41.25-6-4.86-.18-5.57,2.65-10.42,2.37a7.55,7.55,0,0,1-4.48-1.55,2.52,2.52,0,0,1-.09-2,1.75,1.75,0,0,0,.21,1.19c0.23,0,14.34-17.61,15.29-18.71a20.19,20.19,0,0,1,1.74-1.75,35.24,35.24,0,0,0-.36,5.64,17.83,17.83,0,0,0,2.79,9.4c3.94,5.77,22.37,7.75,36.57,7.53,18.76-2.11,24.7-5.27,30.89-8.28q-1.51,1.5-3.34,3.21A24.61,24.61,0,0,0,557.88,405Z"/><path class="cls-2" d="M555.93,612.26c3.95,25.1-6.66,48.28-7.86,72.65l-1.63.24c-1.22-2.59-2.51-5.14-3.64-7.77-6.46-15-12.45-30.23-15.39-46.48-1.27-7-1.17-12.48,5.19-17.76,7.93-6.56,14.5-14.75,23.16-22.07C555.76,598.15,554.84,605.36,555.93,612.26Z"/><path class="cls-4" d="M551.85,116.56c2.26,3.43,2.25,6.27-1.69,8.79a70.58,70.58,0,0,0-10.61,8.24c-3.07,2.93-4.71,2.51-6.75-1a103.46,103.46,0,0,0-25.49-29,165.09,165.09,0,0,0-62-31.57l-0.18-1.59c4.86-.49,9.71-1.16,14.58-1.45,21.92-1.31,43,2.56,61.37,14.58,9.34,6.11,16.49,15.63,24.38,23.85C548,110,549.81,113.45,551.85,116.56Z"/><path class="cls-1" d="M550.73,730.68c0.29,3.77-2,7.75-3.27,11.59,0,0.09-2.42-.1-2.79-0.71-3.93-6.49-7.67-13.1-11.47-19.68l1.18-1.65c3.59,0.61,7.72.34,10.61,2.1C547.7,724,550.5,727.69,550.73,730.68Z"/><path class="cls-5" d="M541.94,748.92c0.48,1-.26,3.24-1.19,4.09-6.75,6.22-13.29,12.79-20.67,18.19-16.29,11.92-34,21.61-52,30.62-8.86,4.42-18.16,4.18-27,1.73-23.4-6.51-45.55-15.89-64.28-32-3.62-3.12-4.84-6-3.27-10.9,9.44-29.44,16.84-59.46,19.14-90.31,1.14-15.23-1-30.72-1.69-46.09,0-.93,0-1.86,0-3.83,5.56,3.21,10.41,6.14,15.38,8.84,9.85,5.34,19.41,11.43,29.73,15.63,16.16,6.56,32.78,4.81,49.07-.52,4.69-1.53,9.25-3.45,13.66-5.11,3.69,15.17,6.76,30,11,44.54a171.65,171.65,0,0,0,24.9,52.37A86.26,86.26,0,0,1,541.94,748.92Z"/><path class="cls-7" d="M537.6,384.58c0.23-.14.54,0.63-0.34,2.36-1.92.48-13.16-.75-13.14-1.26S537.05,384.91,537.6,384.58Z"/><path class="cls-7" d="M536.47,389.85l0.43,1.22c-0.52.23-1.16,0-1.69,0.28-0.11-.43-11.09-3.79-11.09-4C524.46,387,536,390.07,536.47,389.85Z"/><path class="cls-7" d="M532.8,396a1.19,1.19,0,0,1,.08.61,1.47,1.47,0,0,1-.65,0c-0.22-.32-8.41-8.06-8.57-8.41C524,388.34,532.48,395.81,532.8,396Z"/><path class="cls-4" d="M531.27,139.25a3.6,3.6,0,0,1-.36,3.45c-4.62,4.81-9.48,9.41-14.2,14.13-3.21,3.2-4.38-.17-5.58-1.92-3.1-4.5-6-9.16-8.76-13.87-8.1-13.64-21.46-20.5-35.15-26.44-27.58-12-56.73-17.08-86.65-17-17.94.08-35.81,2.19-52.82,8.72-1.35.52-2.79,0.79-4.18,1.18l-0.92-1.76c9.41-4.25,18.57-9.23,28.29-12.59,16.42-5.68,33.18-10.36,49.81-15.42,10-3,20.22-3,30.39-1.35A156,156,0,0,1,514.92,118C521.34,124.06,526,132,531.27,139.25Z"/><path class="cls-7" d="M531.58,398.72a6.1,6.1,0,0,1-2.06.81c-0.44,0-6.78-10.18-6.24-10.2S530.82,398,531.58,398.72Z"/><path class="cls-7" d="M528.28,401a5.82,5.82,0,0,1-2.06.81c-0.43,0-4-10.28-4.36-10.65,0.52-.44-0.49-1.51.05-1.53S527.52,400.28,528.28,401Z"/><path class="cls-7" d="M519.87,391c0.36,0.54,2.13,10.78,2.51,11.36-0.57.21-1.4,0.76-1.65,0.56a4.6,4.6,0,0,1-.86-1.79C520.27,401,519.29,391.17,519.87,391Z"/><path class="cls-7" d="M517.84,391.09c0.13,0,.13,11.37.25,11.51a1,1,0,0,1-.43.33,1,1,0,0,1-.38-0.39C517.42,402.42,517.7,391.09,517.84,391.09Z"/><path class="cls-7" d="M515.32,390.77c0.36,0.54-4.83,9.51-4.44,10.09-0.57.21-1.41,0.75-1.66,0.56a4.74,4.74,0,0,1-.86-1.79C508.76,399.49,514.75,391,515.32,390.77Z"/><path class="cls-7" d="M513.87,402.29c0.13-.28,2.27-10.93,2.42-11.31,0,0.37-2,10.92-1.92,11.14Z"/><path class="cls-7" d="M514.12,390.59a1.15,1.15,0,0,0,0,.53c-0.61.4-7.41,6.39-8,6.77a4.17,4.17,0,0,1-.5-1.27C506.17,396.17,513.48,390.92,514.12,390.59Z"/><path class="cls-7" d="M513.09,389.37c0.1,0.32-7.6,6.66-9.2,7.26-0.14-.39-0.88-0.59-1-1C504.51,395.12,511.46,389.9,513.09,389.37Z"/><path class="cls-7" d="M512.37,388.24c0.11,0.33-7.49,4.54-9.09,5.14-0.14-.39-1.85,0-2-0.35C502.92,392.5,510.75,388.78,512.37,388.24Z"/><path d="M511.52,560.32c1.71,3.11-.9,4.64-3.3,5.27a78.41,78.41,0,0,1-21.73,3l0.6-.33c0.45-.24.12-0.11-0.88,0.33a48.3,48.3,0,0,1-22.82-6.13c-4.23-2.37-7.3-3.87-10.8.63-2.82,3.61-6,2.85-8.79-.09-3.79-4.05-7.12-3.37-12.09-1.23a115.87,115.87,0,0,1-15,5.18,8.13,8.13,0,0,0-2.27-1.21,7.42,7.42,0,0,0,1.28,1.49c-3.59,1-7.22,1.84-10.82,2.65-6.42,1.43-10.2-.71-14-5.65,6.47-.32,12.82.24,18.74-0.94h0c0.43-.09.87-0.18,1.3-0.29a85.58,85.58,0,0,0,21.85-8.87c4.55-2.64,6.86,0,9,2,4,3.77,7,4.41,10.85-.19,2.34-2.83,4.94-3.47,8.85-.7A41.63,41.63,0,0,0,484,562.82a14.78,14.78,0,0,0,2.62,2,10.87,10.87,0,0,0-1.39-2,85,85,0,0,0,21.41-2.6C508.23,559.91,511.13,559.61,511.52,560.32Z"/><path class="cls-7" d="M505.1,385.42c3.07-.09,6.55-0.2,6.75-0.11-0.36.13-11.14,1-11.52,1a1.23,1.23,0,0,1-.47-0.4,1.47,1.47,0,0,1,.51-0.42C500.53,385.56,502.69,385.49,505.1,385.42Z"/><path class="cls-4" d="M508.8,160.59c0.94,1.76-.39,5.69-1.91,7.63-4.59,5.84-9.85,11.14-14.76,16.73-3.78,4.31-5,4.34-6.9-1.18-5.48-16-15.93-28.95-27.15-40.64-20.6-21.45-53.05-30.14-83.26-20-17.12,5.76-33.79,12.52-48.27,23.16C315,154.8,304.84,165.14,294.38,175c-10.87,10.24-16.56,24-24.17,36.52-11.54,18.91-23.69,37.45-34.74,56.63-4.79,8.32-6.58,18.36-11.3,26.75-14.91,26.49-23.06,55.56-33.09,83.92-1.06,3-2.16,6-3.8,10.56-6.53-25.37-3-48.37,5.1-71,3.08-8.58,5.32-17.54,9.15-25.76,7.18-15.41,15-30.52,23-45.55,6-11.37,12-22.93,19.29-33.48,9.34-13.44,19.79-26.14,30.23-38.78a338.23,338.23,0,0,1,23.06-25.26c5.08-5,11.18-9.06,16.94-13.37,13.14-9.85,26.53-19.13,41.87-25.61,14.91-6.31,30.18-6.38,45.59-4.82,23.62,2.38,46.6,7.57,68.54,17.12C487.88,130.59,499.92,144,508.8,160.59Z"/><path class="cls-7" d="M504.78,387.81c0.15-.12,7.18-1.22,7.37-1.22,0,0.05-11.58,3.33-11.58,3.5s-0.17-1.88-.31-1.89S504.91,388,504.78,387.81Z"/><path d="M503.83,389.56a1.29,1.29,0,0,1,.43.57,0.48,0.48,0,1,1-1-.08A1.31,1.31,0,0,1,503.83,389.56Z"/><path d="M489.42,494.77c2.39,6.92-2.44,13.24-9.8,14.84-4.33.95-8.92,0.89-13.4,1-1.21,0-2.44-1.11-3.66-1.71a17.43,17.43,0,0,1,1.66-3.11c1.22-1.54,2.66-2.91,4-4.34-5.81.48-9.51,6.72-17.33,3.42,6.39-3.82,11.87-7.36,17.63-10.37,1.44-.75,4.84-0.48,5.43.49,0.92,1.49.38,4,.07,6-0.22,1.43-1.09,2.76-.93,5.59,3.24-1.61,7.77-2.44,9.36-5.06s0.95-7.26-.28-10.41c-1.49-3.83-4.78-6.92-7-10.52-0.6-1-.07-2.68-0.07-4,1.15,0.26,2.87.14,3.36,0.86C482.38,483.08,487.26,488.47,489.42,494.77Z"/><path d="M486.21,568.56c1-.44,1.33-0.57.88-0.33l-0.6.33h-0.28Z"/><path d="M486.21,568.56h0.28c-4.28,2.49-27.81,16.52-32.44,17.86-7.42,2-22.08-2.23-25.3-6.76-0.38-.54-9.61-8.94-13.06-12.46l1-.28c4.42,2.8,13.68,9.49,14.25,9.73,3.1,1.27,9.84,4.55,17.18,5.5C454.3,583,480.85,570.91,486.21,568.56Z"/><path d="M485.21,562.88a10.87,10.87,0,0,1,1.39,2,14.78,14.78,0,0,1-2.62-2Z"/><path d="M485.21,562.88l-1.23-.06c-6.15-5.3-20.87-19.22-21.43-19.71-4.62-4-9.35-5.2-15.1-2.18-1.4.73-4.38,0.56-5.67-.84-8.24-9.86-21.07,15.39-32.13,23.15,7.15-10.26,16.44-21.19,15.58-20.92,6.49-8.6,9.86-10.12,18.06-6.47a10,10,0,0,0,6.76,0c5.51-1.93,10.43-.82,15.21,4.28C468.36,543.23,481,557.54,485.21,562.88Z"/><path d="M482.05,381.67c0.64,0.5.42,2.6,0.4,3.27-0.05,1.5-.24,3-0.42,4.48a20.19,20.19,0,0,0-1.74,1.75c-0.95,1.1-15.06,18.71-15.29,18.71a1.75,1.75,0,0,1-.21-1.19h0a10.06,10.06,0,0,1,.61-1.83,26.54,26.54,0,0,1,3.25-5c1-1.26,6.05-12.25,7.21-13.38C476.78,387.57,479.94,380,482.05,381.67Z"/><path class="cls-4" d="M475.88,59.12a9.61,9.61,0,0,1,5.1,3c-7.95.38-15.95,0.36-23.85,1.21-14.76,1.57-29.6,2.9-44.15,5.67-26.33,5-52.18,12.2-76.67,23.21-10.76,4.84-20.81,11.4-30.85,17.7a198.19,198.19,0,0,0-20.56,14.88c-15.93,13.08-31.77,26.14-45.28,42-16.67,19.57-31.85,40-43.87,62.73,0.08,0,1.58-18.83,3-28.1,4.07-27.25,17.72-49.68,34.9-70.69a192.68,192.68,0,0,1,33-32.21c27.25-20.58,57.15-35.94,91-41.85,18.58-3.24,37.58-6.54,56.28-6C434.61,51.18,455.23,56,475.88,59.12Z"/><path class="cls-8" d="M462.55,543.11c0.56,0.49,15.28,14.41,21.43,19.71a41.63,41.63,0,0,1-22.47-7.62c-3.91-2.77-6.51-2.13-8.85.7-3.82,4.6-6.81,4-10.85.19-2.16-2-4.47-4.63-9-2A85.58,85.58,0,0,1,410.94,563c-0.43.11-.87,0.2-1.3,0.29h0c11.06-7.76,23.89-33,32.13-23.15,1.29,1.4,4.27,1.57,5.67.84C453.2,537.91,457.93,539.1,462.55,543.11Z"/><path class="cls-4" d="M450.71,142.12c12.87,11.63,23.64,26.15,29.8,44.44-12.88,0-24.59.13-36.28-.14-1.88,0-3.95-1.6-5.55-2.93-8.77-7.26-16.6-15.7-27.87-19.56a69.59,69.59,0,0,0-35.37-2.55c-25.79,4.57-46.36,17.75-64.13,37-18.68,20.21-35.79,41.32-48.9,65.56a32,32,0,0,1-2.53,3.53l-1.79-.69c4.16-13.33,7.61-26.93,12.66-39.91,8.37-21.52,20.2-41,36.87-57.4,19.42-19.16,42.49-31.95,67.84-41.12C403.22,118.27,429.17,122.65,450.71,142.12Z"/><path class="cls-8" d="M463.39,562.43a48.3,48.3,0,0,0,22.82,6.13c-5.36,2.35-31.91,14.39-38.1,13.59-7.34-.95-14.08-4.23-17.18-5.5-0.57-.24-9.83-6.93-14.25-9.73a115.87,115.87,0,0,0,15-5.18c5-2.14,8.3-2.82,12.09,1.23,2.76,2.94,6,3.7,8.79.09C456.09,558.56,459.16,560.06,463.39,562.43Z"/><path d="M444.79,504.43c1.09,0.58,1.82,1.87,2.71,2.83-1.4.52-3.12,1.84-4.14,1.43-4.8-1.94-9.44-4.29-14.07-6.63-2.61-1.32-5.08-2.92-7.61-4.39l-1.25,1.06c1.65,2.15,3.24,4.34,5,6.43,2.37,2.89.75,5.86-1.79,5-5.41-1.87-11.12-4.55-15-8.55-2.54-2.61-2.34-8.1-2.82-12.37-0.1-.89,2.15-2.05,3.32-3.09,0.22,1.34.34,2.72,0.69,4,0.81,3.06,1.73,6.08,2.6,9.12,3.54-8.33,6-9,13.3-4.76C431.87,498.11,438.45,501.06,444.79,504.43Z"/><path class="cls-1" d="M455.1,811.88c-12.91,17.59-24.48,34-36.84,49.85-4.46,5.71-11.67,7.1-19.05,6.23-13.8-1.64-25.2-8.9-36.78-15.66a161.72,161.72,0,0,1-14.23-9.59c-1.3-1-2.94-3.17-2.65-4.36,5.56-22.47,13.68-44,22.86-66.11C393.5,793.07,421.21,806.73,455.1,811.88Z"/><path class="cls-4" d="M413.35,171.14c8.56,3.1,14.67,9.48,22,15.21-15,4-28.55,7.71-42.2,11.16a9.7,9.7,0,0,1-6.24-.63c-19.83-10-39.58-7.44-59.37,0-1.14.43-2.29,0.84-3.44,1.26l-1-1.25a97.27,97.27,0,0,1,46.2-27C384.28,166,398.83,165.87,413.35,171.14Z"/><path d="M416.68,566.92l-1,.28a7.42,7.42,0,0,1-1.28-1.49A8.13,8.13,0,0,1,416.68,566.92Z"/><path d="M414.44,320.89c0.25,7.63.58,15.28,0.21,22.88-0.19,4-3.37,4.94-8,2.33-6.47-3.7-12.63-8-19-11.77-8.3-4.92-16.49-10.12-25.17-14.3-13.23-6.38-28.75-3.21-39.19,7.16-4.94,4.9-9.71,10-14.83,14.67-3.18,2.92-6.86,5.28-10.31,7.9-0.46-.13-3.58-2.9-3.39-4a13.63,13.63,0,0,1,3.43-6.31c2.76-3.07,2.64-3,5.69-9.53,1.22-2.6,3.81-6,6.18-6.33,5.74-.85,6.9-7.89,12.75-8.23,1.25-.07,2.38-2.42,3.56-3.74,1.34-1.49,2.46-3.85,4.05-4.24,1.4-.34,3.33,1.55,5.68,2.81,0.17-2.65-4.64-8.42,3.14-5.34,2.57,1,6.05-.46,9.11-0.38,3.47,0.08,7.13,0,10.33,1.12s3.17-2.16,3-2.68a33.09,33.09,0,0,0,2.44,4c0.13,0.17,1.83-.85,2-1,0,0.07,0,.47,0,0.47l0.24-.33c2.17,1.61,4.19,3.92,6.63,4.54,3.25,0.83,5.87,1.78,7.31,4.93,0.45-.54,1-1.53,1.13-1.42,1.71,0.16,3.67-.15,5,0.6,1.78,1,3.17,4.22,4.34-.35,1.2,0.57,2.65.89,3.56,1.76a26.64,26.64,0,0,1,3,4.2c0.91-1.65,1.78-3.33,2.74-4.95a11.67,11.67,0,0,1,2-1.65c0.67,3.4,1.75,9,1.75,9,0.72-1.28,1.14-3.14,2.22-3.69a14.8,14.8,0,0,1,6.38-1.47C413.19,317.55,414.4,319.7,414.44,320.89Z"/><path d="M410.73,403.91c2.07,4,.49,6.16-3.85,6-4.18-1.27-3.91-2.61-8.81-2.85a50.09,50.09,0,0,0-5.29,1c6.93-2.33-1.17-4-1.19-4.1s-1.48.4-3.74,1c1.18-.48,2.69-1.05,4.61-1.72,4-2,4.15-3.4,5.47-6.19a8.41,8.41,0,0,0-.48-5.23c2.54,2.83,4.79,5.44,6.49,7.15,3.39,0.69.48-2.07,2.17-2a1.12,1.12,0,0,0-.11-0.56C407.84,399.25,409.48,401.48,410.73,403.91Z"/><path d="M409.64,563.25h0Z"/><path d="M406,396.43a1.12,1.12,0,0,1,.11.56c-1.69-.07,1.22,2.69-2.17,2-1.7-1.71-3.95-4.32-6.49-7.15-0.17-.55-0.22-0.89.1-0.93,2.86-.41,8.17,4.76,8.09,5l0.36,0.55h0Z"/><path d="M356.09,401.6c0.77-1.28,1.27-1.74,1.21-2.09-0.14-.76-0.9-10-1.21-10.74C356,389.89,356.24,399.55,356.09,401.6Zm-4.15-14.08a32.59,32.59,0,0,0-9.32,7.75,19,19,0,0,1,1.78,1.16C344.9,395.87,351.29,388.13,351.94,387.52Zm54.06,8.9-0.36-.55c0.08-.2-5.23-5.37-8.09-5-0.32,0-.27.38-0.1,0.93-5.88-6.58-13.25-14.39-18.49-15.05,1.71,3.21,3.45,8.19-.32,15.73-4.71,7-6,10-15.12,12.34-11.91,1.88-24.65-.81-30.7-12-1.08-2-13.55-2.17-14.2,0a11.21,11.21,0,0,0,1.52,8.57,33.26,33.26,0,0,0,8.76,7.92c2.71,1.39,17.6,3.21,24.8,3.1,6.84-.1,26-5.29,34.15-7.54-8.94,3.69,1.47,2.48,1.48,3.58,0,0.22,1.61-.09,3.45-0.49l-0.5.16c-9.46,2.91-35.64,7.15-37.23,7.19-14.56.31-17.45-.14-27.2-3-1.46-.43-3-0.75-4.61,1.51-2.15-7.48-6.14,3-7.35,3.41,0.49-2.71,1.67-8,1.67-8,0.6-2.37-3.49,1.41-3.65,1.39,0.28-.14,2.73-4.3,3-4.44a40.27,40.27,0,0,1-3.14-12.62c-0.1-1-2.23-2-3.6-2.53-3.86-1.63-8.09-2.58-11.66-4.69-3.12-1.84-3.06-4.8,1-5.66,14.24-3.05,22.78-13.08,30.27-24.06,11.26-16.5,38.82-13.14,49.54-2.16C386.48,361.92,404.34,391.72,406,396.42ZM385.72,371.3a0.32,0.32,0,0,0,.21-0.52c-1.55-1.83-7.4-8.77-8.62-10.08-10.6-11.37-33.78-17.18-44.88-.77-1.35,2-6.17,8-10.53,13.41-3.39,4.19-6.51,8-7.49,9.19a0.32,0.32,0,0,0,.2.52c3,0.39,11.85-2.45,14-2.56,0.93-.05-5.4-2.73-4.61-6.43,0.07-.31,3.12,5.25,7.46,5.25,2.34,0-2.56-2.95-2.46-6.73a0.32,0.32,0,0,1,.56-0.21c1.28,1.42,4.79,5.07,5.78,3.94s-1.09-6.06-1.45-8.17a0.32,0.32,0,0,1,.57-0.26c1.87,2.34,7.29,6.25,8.13,6.35A2.69,2.69,0,0,0,345,373.1c1-1.15-1.72-5.54-1.92-8.66a0.27,0.27,0,0,1,0-.09c0.13-.53,6,8,7.17,6.4,0.94-1.26-1.3-8.62-.23-8.11,0.8,0.38,4.21,6.22,9.42,7.69,3.46,1,6-7.57,7.37-9.1,1.55-1.78.61,6.23,0.61,7.9,0,3.34,4.17,1.59,5.63-.23a0.31,0.31,0,0,1,.55.14C374.48,373.24,379,372.16,385.72,371.3Zm-11.11,14.82a3.05,3.05,0,0,0,.75-1.08,2.68,2.68,0,0,0-1.25-.33c-0.28.09-10.67-1.37-10.86-1C363.62,383.84,374.38,386.24,374.61,386.12Zm-0.37,3.56,0.92-1.46a2.51,2.51,0,0,0-1.2-.46c-0.62.15-10.39-3.29-11-3C363.58,385.08,373.41,389.26,374.24,389.68ZM373.51,383l0.81-1.53a2.55,2.55,0,0,0-1.22-.38c-0.61.2-9.28,1.3-9.83,1.65C363.88,383,372.65,382.66,373.51,383Zm-0.65,10.65,0.66-.67-0.5-.24c-0.15.14-10.62-7.24-10.54-7.1C363.29,386.92,373.24,394.15,372.86,393.68Zm-0.79-14.54-0.16-.4-8.66,2.48ZM368.5,399l1.54-1.05c-1.29-2.18-7.55-9.23-8.83-11.41C360.89,387.47,367.64,397.76,368.5,399Zm-4.86,1.29a2.63,2.63,0,0,0,.8-1.14c0-.71-4.45-10.82-4.7-11.65C359.39,388.07,363.42,399.63,363.64,400.28Zm-3.13.64,0.22-.51c-0.15-.16-2.8-11.92-2.95-11.93s2.21,11.71,2.05,11.83Zm-5.57-.56c0-.7.26-11.63,0-12.46-0.34.58-1.44,11.24-1.41,11.64a7.72,7.72,0,0,0,.61,2A2.8,2.8,0,0,0,354.94,400.36Zm-2.95.31c-0.14-.75,2-12.05,1.67-12.77-0.08,1.12-2.73,9.92-2.89,11.95C351.54,398.56,352.05,401,352,400.67Zm-3.25-2.89c0.12-.39,4.58-10.3,4.48-10.76-0.37.27-5.65,9.88-5.79,10.24A0.76,0.76,0,1,0,348.74,397.78Zm2.34-11.55c0-.18-9.93,6.23-10.12,6a1.32,1.32,0,0,0-.47.53,1.38,1.38,0,0,0,.46.54C341.13,393.16,351.08,386.4,351.08,386.23Zm-0.77-3.14c0.12-.39-11.53,1.12-11.63.66a2.83,2.83,0,0,0-1,.83,2.56,2.56,0,0,0,.28,1.24C338.27,385.58,350.21,383.4,350.31,383.09Zm-3.18,4.4c-0.13-.57,2.78-2.14,2.65-2.71-1.73.26-10.47,3-12.18,3.37-0.05,0,.17,1.33.27,2C339.64,389.79,345.36,387.89,347.13,387.49Z"/><path class="cls-1" d="M397.45,391.84a8.41,8.41,0,0,1,.48,5.23c-1.32,2.79-1.45,4.22-5.47,6.19-1.92.67-3.43,1.24-4.61,1.72-8.15,2.25-27.31,7.44-34.15,7.54-7.2.11-22.09-1.71-24.8-3.1a33.26,33.26,0,0,1-8.76-7.92,11.21,11.21,0,0,1-1.52-8.57c0.65-2.2,13.12-2,14.2,0,6,11.15,18.79,13.84,30.7,12,9.08-2.31,10.41-5.31,15.12-12.34,3.77-7.54,2-12.52.32-15.73C384.2,377.45,391.57,385.26,397.45,391.84Z"/><path class="cls-2" d="M387.22,922.69c8.17,11.22,10.53,23.72,7.93,37.39-2.41,12.69-12,17.22-23.14,21.33-0.55-18.16-4.83-34.65-19.39-47.2,10.13-4.68,19.51-9.19,29.09-13.24C383.11,920.37,386.28,921.39,387.22,922.69Z"/><path d="M391.59,404c0,0.12,8.12,1.77,1.19,4.1-1.84.4-3.45,0.71-3.45,0.49,0-1.1-10.42.11-1.48-3.58C390.11,404.37,391.52,404,391.59,404Z"/><path class="cls-6" d="M385.93,370.78a0.32,0.32,0,0,1-.21.52c-6.69.86-11.24,1.94-12.17-2.26a0.31,0.31,0,0,0-.55-0.14c-1.46,1.82-5.63,3.57-5.63.23,0-1.67.94-9.68-.61-7.9-1.32,1.53-3.91,10.08-7.37,9.1-5.21-1.47-8.62-7.31-9.42-7.69-1.07-.51,1.17,6.85.23,8.11-1.18,1.59-7-6.93-7.17-6.4a0.27,0.27,0,0,0,0,.09c0.2,3.12,2.94,7.51,1.92,8.66a2.69,2.69,0,0,1-2.32,1.13c-0.84-.1-6.26-4-8.13-6.35a0.32,0.32,0,0,0-.57.26c0.36,2.11,2.39,7.11,1.45,8.17s-4.5-2.52-5.78-3.94a0.32,0.32,0,0,0-.56.21c-0.1,3.78,4.8,6.73,2.46,6.73-4.34,0-7.39-5.56-7.46-5.25l-2.14-.72c4.36-5.38,9.18-11.41,10.53-13.41,11.1-16.41,34.28-10.6,44.88.77C378.53,362,384.38,369,385.93,370.78Z"/><path class="cls-2" d="M385.09,634.46q-6.33-13.23-12.67-26.48c-0.64-.38,8.24,3.44,9.41,8.73C383.12,622.58,384.81,628.35,385.09,634.46Z"/><path class="cls-2" d="M376.77,635.41c6.57,24.11,4.51,48.31,1.11,72.62A299.41,299.41,0,0,1,363,769.48c-7.23,19.81-15,39.46-21.4,59.53-7,22-10.71,44.55-7,67.76,2.3,14.4,5.14,19.33,18.18,29.74-6.82,3-12.8,6.35-19.22,8-2,.52-6.29-2.9-7.62-5.49-6-11.76-9-24.52-7.1-37.62,4.59-31.27,10.69-62.23,20.71-92.33,3.53-10.61,5.48-21.76,9.16-32.3,7.89-22.59,13.53-45.77,19.56-68.87,5.8-22.21,8.48-44.41,4.14-67.16a27.78,27.78,0,0,1-.22-3.66c0.05-.87-0.33-4,0.18-4.16C373.41,625.89,376,632.42,376.77,635.41Z"/><path class="cls-7" d="M375.36,385a3.05,3.05,0,0,1-.75,1.08c-0.23.12-11-2.28-11.36-2.4,0.19-.38,10.58,1.08,10.86,1A2.68,2.68,0,0,1,375.36,385Z"/><path class="cls-7" d="M375.16,388.22l-0.92,1.46c-0.83-.42-10.66-4.6-11.25-4.9,0.58-.31,10.35,3.13,11,3A2.51,2.51,0,0,1,375.16,388.22Z"/><path class="cls-7" d="M374.32,381.5L373.51,383c-0.86-.37-9.63,0-10.24-0.26,0.55-.35,9.22-1.45,9.83-1.65A2.55,2.55,0,0,1,374.32,381.5Z"/><path class="cls-7" d="M373.52,393l-0.66.67c0.38,0.47-9.57-6.76-10.38-8-0.08-.14,10.39,7.24,10.54,7.1Z"/><polygon class="cls-7" points="371.92 378.74 372.07 379.14 363.25 381.22 371.92 378.74"/><path class="cls-7" d="M370,397.94L368.5,399c-0.86-1.23-7.61-11.52-7.29-12.46C362.49,388.71,368.75,395.76,370,397.94Z"/><path class="cls-2" d="M366.33,637.07c3.27,24.3-1.12,47.58-7.48,70.71C351.67,733.9,344.26,760,337,786c-4.95,17.66-10.66,35.16-14.63,53-4.3,19.38-7.58,39-10.14,58.72-1.88,14.43,2.73,27.84,11,41-2.91,1.16-6,2.43-9.09,3.62-7.43,2.84-14.93,5.49-22.29,8.51-5.34,2.2-10.27,2.94-15.34-.79-5.77-4.24-10.74-9-12.25-16.3-2.64-12.78,1.16-24.92,5.48-36.43,8.83-23.53,19.05-46.52,28.37-69.86,8.08-20.22,16-40.51,23.45-61C327.61,749.8,334,733,338.4,715.71c3.78-14.82,5.08-30.3,7.16-45.52,1.67-12.17,1.76-24.36-1.44-36.35-4.81-18-10.64-35.64-19.55-52.14-1.46-2.7-2-5.9-3-8.86,0.58,0.69,20.83,17.68,29.89,27.48C360.78,610.4,364.49,623.33,366.33,637.07Z"/><path d="M366.42,306.06l0,0-0.14-.11Z"/><path d="M366.4,306.09l-0.24.33s0-.4,0-0.47h0l0,0Z"/><path class="cls-2" d="M364.5,979.18c0.44,4.31-1.85,7.37-6.06,9.28-7.94,3.59-15.68,7.6-23.5,11.44-2.39,1.18-4.18,1.64-4.36-2.13-0.84-17.64-7.87-32.58-20.09-45.2a9.9,9.9,0,0,1-1-2.21c11.05-4.22,21.63-8.47,32.4-12.17,2-.69,5.78,0,7,1.54,4.5,5.53,9.46,11.19,12,17.69C363.5,964.14,363.76,971.85,364.5,979.18Z"/><path class="cls-7" d="M364.44,399.14a2.63,2.63,0,0,1-.8,1.14c-0.22-.65-4.25-12.21-3.9-12.79C360,388.32,364.41,398.43,364.44,399.14Z"/><path class="cls-4" d="M299.4,222.15c18.23-20.42,60.32-32.81,83.48-20.95-8.25,4.53-16,8.81-23.76,13.05-0.87.48-2,.58-2.74,1.18-6.25,5-12.45,6-20.86,4.35-8.94-1.75-18.71.75-28.12,1.42C304.76,221.39,299.54,222.25,299.4,222.15Z"/><path class="cls-7" d="M360.73,400.41l-0.22.51-0.68-.61c0.16-.12-2.2-11.85-2.05-11.83S360.58,400.25,360.73,400.41Z"/><path class="cls-7" d="M357.3,399.51c0.06,0.35-.44.81-1.21,2.09,0.15-2.05-.09-11.71,0-12.83C356.4,389.49,357.16,398.75,357.3,399.51Z"/><path class="cls-7" d="M354.94,387.9c0.26,0.83,0,11.76,0,12.46a2.8,2.8,0,0,1-.8,1.15,7.72,7.72,0,0,1-.61-2C353.5,399.14,354.6,388.48,354.94,387.9Z"/><path class="cls-7" d="M353.66,387.9c0.31,0.72-1.81,12-1.67,12.77,0.06,0.36-.45-2.11-1.22-0.82C350.93,397.82,353.58,389,353.66,387.9Z"/><path class="cls-7" d="M353.22,387c0.1,0.46-4.36,10.37-4.48,10.76a0.76,0.76,0,1,1-1.31-.52C347.57,396.9,352.85,387.29,353.22,387Z"/><path class="cls-7" d="M341,392.26c0.19,0.2,10.13-6.21,10.12-6s-9.95,6.93-10.13,7.1a1.38,1.38,0,0,1-.46-0.54A1.32,1.32,0,0,1,341,392.26Z"/><path class="cls-7" d="M338.68,383.75c0.1,0.46,11.75-1.05,11.63-.66s-12,2.49-12.4,2.73a2.56,2.56,0,0,1-.28-1.24A2.83,2.83,0,0,1,338.68,383.75Z"/><path class="cls-7" d="M349.78,384.78c0.13,0.57-2.78,2.14-2.65,2.71-1.77.4-7.49,2.3-9.26,2.7-0.1-.71-0.32-2-0.27-2C339.31,387.78,348.05,385,349.78,384.78Z"/><path class="cls-7" d="M342.62,395.27a32.59,32.59,0,0,1,9.32-7.75c-0.65.61-7,8.35-7.54,8.91A19,19,0,0,0,342.62,395.27Z"/><path class="cls-4" d="M340.16,225.12a38.23,38.23,0,0,1-3.63,3.77c-8.77,6.39-17.72,12.54-26.34,19.13-5.52,4.22-10.59,9-15.82,13.61a147.61,147.61,0,0,0-38.63,52.47c-2.44-4.72-2.8-17.76-.55-21.89,7-12.87,14.52-25.48,21.06-38.58,11.81-23.65,32.58-29.32,56.45-29.31C334.79,224.32,336.87,224.75,340.16,225.12Z"/><path class="cls-2" d="M337.93,642.69a193,193,0,0,1-1,46.87C331.07,729.77,314.82,767,301,804.85c-6,16.56-14.74,32.13-21.2,48.56-8,20.35-16.41,40.74-21.85,61.83-4.94,19.18-1.14,30.43,15.06,41.75-4.09,2.68-8.05,5.4-12.13,7.91-5,3.08-4.89,7.86-4,12.57s3.81,8.09,8.86,9,9-.85,12.45-6.15c-2.4.11-3.92-.21-5.05,0.31-5.1,2.39-8.09.41-9.88-4.39-1.89-5.07-.56-9.15,4.74-10.57,3.82-1,8.78-1.28,12.23.31,15.52,7.18,22.76,24.44,17.93,40.86-3.62,12.3-14.21,18-26.78,14.39-25.54-7.43-43.64-23.34-50.84-49-7.31-26.17-5.38-52.2,7.22-76.86,5.89-11.53,11-23.56,18-34.4,9.12-14.19,20.14-27.14,29.57-41.14,17-25.31,32.08-51.86,38.62-82,3.57-16.45,4.52-33.49,6.39-50.29,0.93-8.38,1.5-16.82,1.79-25.25a143,143,0,0,0-.61-17.06c-1.49-17.59-3.12-35.18-4.77-52.76-0.36-3.81-1-7.59-1.53-11.39l2-.67c3.46,7.56,7.68,14.88,10.22,22.74C331.7,616.1,336.56,629.27,337.93,642.69Z"/><path class="cls-2" d="M341.25,110.73q-11.41,7.31-22.83,14.62c-24.1,15.5-44.09,35.58-61.12,58.25a540.9,540.9,0,0,0-67,116.66c-1.66,4-2.72,8.25-4.06,12.38l-1.3-.23c0.6-9.56,1.12-19.13,1.84-28.68,0.32-4.21,1.09-8.37,1.59-12.57,3.08-25.7,17.7-46.12,31.43-66.7,8.79-13.19,19.18-25.37,29.45-37.5,5.9-7,12.95-13,19.57-19.3a76.54,76.54,0,0,1,9.51-8.34c4.2-2.87,8.86-5.07,13.31-7.57a61.21,61.21,0,0,0,6.41-3.68C311,118.57,326.16,114.74,341.25,110.73Z"/><path class="cls-6" d="M324,374.06c-0.79,3.7,5.54,6.38,4.61,6.43-2.19.11-11.05,2.95-14,2.56a0.32,0.32,0,0,1-.2-0.52c1-1.21,4.1-5,7.49-9.19Z"/><path class="cls-2" d="M307.7,958.55c10.58,12.3,18.07,26.06,16.19,43.14-0.13,1.21-.63,3-1.48,3.41-6.47,3-13.07,5.77-21.2,9.27,8.4-23.71,3.92-41.71-19-54.21,6.59-2.34,11.08-4.84,15.77-5.3C301.12,954.55,305.66,956.17,307.7,958.55Z"/><path class="cls-2" d="M313,619c1.68,20.34,3.91,40.66,1.41,61.12-2.27,18.51-3.74,37.13-6.4,55.59-3.65,25.41-18,43.23-41.29,53.55-5.15,2.28-11.33,2.24-17.06,3.22,5.79-6.84,11.26-14,17.49-20.45,8.32-8.6,12.45-19.19,14.95-30.36,4.26-19,6.22-38.4,4.49-57.93a121.09,121.09,0,0,0-3.26-19.09q-10.1-39.74-20.67-79.34Q246.21,524,229.51,462.72c-7.6-27.92-14.18-55.93-13.48-85.2,0.64-27.07,3.91-53.6,14.07-78.92,4.44-11.07,8.87-22.17,14-32.94,2.93-6.21,7.15-11.83,10.9-17.64h0c0.08,0.72-8.53,40.39-7.2,61.44s2.45,42.3,6.1,63c3,16.77,9.25,33,14.59,49.28,7.42,22.66,15.93,45,22.83,67.78,5.61,18.57,10,37.55,14,56.54,2.26,10.72,2.67,21.83,3.79,32.78C310.47,592.23,311.86,605.6,313,619Z"/><path class="cls-2" d="M290.53,780.53l1.07,1.14L280,802c-1.43-2.18-2.45-3.78-3.52-5.34-2-2.94-1.92-5.17,1.47-7.26C282.32,786.7,286.35,783.51,290.53,780.53Z"/><path class="cls-4" d="M293.89,270.57c-3.67,6.71-7.71,13.26-10.86,20.2a103.35,103.35,0,0,0-6.56,18.92c-5.91,25.12-6.66,50.79-7.27,76.42-0.14,5.9.83,11.82,0.68,17.86a182.5,182.5,0,0,1-12.05-42.47c-2.17-13.11-4.07-26.18,1.26-38.87C267.23,303.26,293.27,271.36,293.89,270.57Z"/><path class="cls-2" d="M274.67,658.42c6.18,23.08,6,46.15,3.63,69.58-0.86,8.32-5,13.51-12,16.5-7.94,3.4-16.51,4.81-24.82,1.49-22.2-8.87-39-23.44-44.85-47.43-1.88-7.66-1.43-16.28-.3-24.21,1.52-10.63,7.72-14.87,18.1-12.57,25.64,5.7,42.42,24.52,42.49,51.36,0,10.51-6,17-16.2,19.2-5.64,1.21-9.71-1.82-13.62-4.76-6.78-5.09-10.53-19.92-7.77-28,1.24-3.64,3.54-3.44,6.53-2.79,1.38,0.3,3-.33,4.45-0.54-1.2-1.33-2.15-3.3-3.64-3.85-4.25-1.58-10.6,2.23-12.86,6.76-2.71,5.45-1.27,10.82,0,16.09,4.43,18.46,16.79,23.47,30.69,20.14,10.76-2.57,18.9-13.79,18.61-25.08-0.23-8.89-.95-17.93.22-26.68,2.9-21.7-1.14-42.44-7.57-62.81-7.62-24.13-15.57-48.19-24.29-71.94-7.89-21.48-17-42.49-25.58-63.72-8.19-20.32-11.11-41.66-13.57-63.29-2-17.46,2-33.41,7.56-49.4,3.24-9.32,6.61-18.61,9.92-27.92l1.6,0.5c-0.76,11.16-1.8,22.32-2.22,33.5-0.89,23.13,3.18,45.55,9.63,67.71,6.23,21.43,11.78,43.06,17.68,64.59,4.92,18,10.22,35.82,14.82,53.87C259.27,595.93,266.36,627.34,274.67,658.42Z"/><path class="cls-2" d="M275.45,802.8c3,4.74,2.52,6.71-2.57,8.75-1.59.64-3.4,0.72-5,1.34-8.38,3.32-13.35,1.53-17.22-6.63a40.47,40.47,0,0,1-2-6.46c6.6-1.82,12.86-3.34,19-5.31,2.74-.88,4.05-0.62,4.88,2.3A23.44,23.44,0,0,0,275.45,802.8Z"/><path class="cls-2" d="M275.35,745.73C273,751.39,272,756,269.47,759.3c-7.56,9.82-15.2,19.71-23.88,28.5-7.85,7.94-13.38,7.95-23,2.87-14.72-7.79-27.66-17.71-37.45-31.43-19-26.66-17.63-61,2.91-85,0.44-.51,1.16-0.78,3.13-2.07-5.64,22.24.19,40.61,13.88,56.21,10.45,11.91,23.31,21.63,39.34,24.25,7.18,1.17,15.06-1.58,22.56-2.92C269.26,749.31,271.34,747.69,275.35,745.73Z"/><path class="cls-2" d="M268.77,820l-12.33,16.53-4.15-10.32Z"/><path class="cls-2" d="M262.77,93.52c1.16-.29-5,4.23-8.13,6.91,2.9-2.56,7.79-6.63,8.11-6.9h0Z"/><path class="cls-2" d="M262.75,93.53c-0.32.27-5.21,4.34-8.11,6.9L254,101c-16.69,15-32.1,31.05-44.33,50-7.67,11.89-16.29,23.18-23.7,35.22-14.36,23.34-23.81,48.54-26.48,76-2.5,25.7-4.72,51.44-7.67,77.09-1.18,10.29-3.86,20.43-6.16,30.57a16.94,16.94,0,0,1-3.54,6.4c-9.53,11.87-31.63,17.94-45.43,12.17-8.54-3.57-15-9.36-18.12-18.64-7.09-21.21-.88-45.41,16.4-58.43,11-8.27,33-.67,33.88,11.71a27,27,0,0,1-1.52,11.54,81.4,81.4,0,0,1-8.93,17.11c-4,5.58-10.65,6.09-14.27,2.22-4.49-4.81-4.91-16.13-.35-19.21,1-.69,3.56.68,5.31,1.32a34.13,34.13,0,0,1,4,2.06c0-1.75.64-3.78,0-5.19-3.15-6.56-10.64-7.21-15.17-1.53-6.51,8.17-5.74,21.11,1.57,26.25,8.82,6.19,20.55,3.88,26.88-5.26,9.6-13.84,11.83-29.68,13.34-46,2.46-26.69,3.51-53.75,13.16-79.2,9.12-24.07,22.18-45.95,37.35-66.77,17.71-24.31,40-43.63,63.58-61.79C256.52,96.59,259.76,95.23,262.75,93.53Z"/><path d="M259,1101.77l-18.09.06a7.21,7.21,0,0,1-1-1.53c-1.63-3.42-2.87-7-4.61-10.4a27,27,0,0,0-4.67-6.7c-10.2-10.19-11.47-22.65-9.55-36,1.41-9.83,2.7-19.67,4.23-29.47,0.23-1.46,1.45-2.77,2.21-4.14,0.41,1.43,1.22,2.89,1.17,4.31-0.61,15.14-1.47,30.28-2,45.43a12.48,12.48,0,0,0,2.11,7.55c8.71,11.14,17.26,22.52,29.68,30A1.56,1.56,0,0,1,259,1101.77Z"/><path class="cls-2" d="M232,569.67c14.94,36.69,27.06,74,25.86,114.3-13.39-17.32-29.6-28.29-53-27.74C223.17,630,230.56,600.88,232,569.67Z"/><path class="cls-2" d="M253.5,817.12c-0.08.72-.16,1.43-0.23,2.15-5.75,2-11.46,4.1-17.24,6-5.23,1.73-9.61.25-11.6-4.91a109.42,109.42,0,0,1-5.11-17.75c-0.69-3.49,1.13-5.88,5.34-4.12a4.71,4.71,0,0,0,1.41.48c5.43,0.27,11.21-.59,16.19,1,5.7,1.84,1.79,10.09,6.62,13.42C250.51,814.52,252,815.88,253.5,817.12Z"/><path class="cls-2" d="M248.94,830c3.09,1.2,3.38,10.65,1,14.4a78.42,78.42,0,0,1-5.46,7c-2.32-6.7-4.59-13.26-7-20.12a1.62,1.62,0,0,1,1.09-.62C242.1,830.29,246,828.88,248.94,830Z"/><path class="cls-1" d="M249.62,792.47c-0.07.08-.14,0.15-0.2,0.23a2,2,0,0,1-.13-0.18Z"/><path class="cls-1" d="M249.42,792.7l-0.31-.05,0.18-.13A2,2,0,0,0,249.42,792.7Z"/><path class="cls-2" d="M234.72,840.05c3.59,9.11,2.71,17.95-.37,26.95-4.59,13.38-12.84,24.57-21.27,35.56-6.7,8.75-16.78,9.9-27,10-14.84.19-26.42-6.08-35.25-17.68a120.3,120.3,0,0,1-24.55-64.77C124,800.23,130.73,771.51,139,743c9-31.26,22.53-60.43,39-88.29,10.74-18.21,22.54-35.81,33.5-53.9,4.68-7.72,8.46-16,12.65-24-0.06,1-.55,15.53-2.35,25.63-0.07.36-.13,0.72-0.2,1.07-0.15.75-.3,1.47-0.47,2.16q-0.1.43-.21,0.84c0,0.2-.1.4-0.16,0.6-6.64,23.52-16.34,45.06-35.08,62-12.41,11.19-18.61,26.17-20,42.88-1.61,20.21-3.57,40.41-4.3,60.65-0.77,21.53-1,43.16,5,64.24,2.57,9.06,4.39,18.42,7.86,27.12a32.28,32.28,0,0,0,34.26,20c3-.38,6.89-1.68,8.61-3.91a156.61,156.61,0,0,0,14.67-22.28c1.45-2.73-.09-7.15-0.64-10.74-0.12-.79-1.79-1.35-2.74-2a11.26,11.26,0,0,0-1.65,2.87c-0.63,2.64-.54,5.55-1.63,8-0.78,1.73-3.29,4.14-4.52,3.88-2-.44-5-2.84-5-4.38a56.51,56.51,0,0,1,2.23-16.67c0.69-2.13,4.83-4,7.62-4.39C229.55,833.66,233,835.59,234.72,840.05Z"/><path class="cls-1" d="M224.09,576.75h0s-0.44,15.1-2.36,25.66c1.8-10.1,2.29-24.59,2.35-25.63C224.09,576.76,224.1,576.76,224.09,576.75Z"/><path class="cls-1" d="M221.74,602.4c-0.06.37-.13,0.72-0.2,1.07C221.61,603.12,221.67,602.76,221.74,602.4Z"/><path class="cls-1" d="M221.07,605.63q-0.1.43-.21,0.84Q221,606.07,221.07,605.63Z"/><path class="cls-2" d="M218.57,534.9c2,5.84,2.24,12.3,2.37,18.86-12.82-18.67-27.23-32.19-52.08-23.39L192,466c3.91,10.23,8,21.24,12.31,32.19C209,510.45,214.29,522.5,218.57,534.9Z"/><path class="cls-2" d="M215.66,813.62c1.29,5.36,4.73,10.21,7.44,15.72-8,2.39-8,2.39-15.56,23.31-10.87-23.08-11.86-46.14-11.82-70.7,6.62,4.09,11.88,7.18,16.92,10.59a6.14,6.14,0,0,1,2.38,4.13C215.37,802.33,214.37,808.24,215.66,813.62Z"/><path class="cls-2" d="M217,572.48c0.38,2.42-1.06,5.33-2.2,7.75-2.82,6-6,11.84-9.19,18.21-2.34-8.4-4.58-16-6.55-23.63-2.91-11.25-10.14-19.36-19.48-25.36-4.09-2.63-9.61-3.05-14.85-4.57,8.38-16.85,22.49-15.87,36.4-5.08C211.58,547.91,215.05,560,217,572.48Z"/><path class="cls-2" d="M219.7,867.07c-4.34,6.33-7.46,13.28-16.75,11.88-9.9-1.5-17.49-6.66-21.41-15.52a141.5,141.5,0,0,1-9.3-28.28c-4.72-23-5.48-46.36-3.65-69.78,0.43-5.41,1-10.81,1.62-17.5,1.58,2.45,2.55,4,3.55,5.51,3.55,5.41,6.09,12.07,10.89,15.94,6.92,5.57,6.17,12.1,6,19.23-0.46,18.45.48,36.71,5.73,54.64C200,855.38,208.16,862.31,219.7,867.07Z"/><path class="cls-2" d="M197.07,593.42l1.38,1.1c-0.94,6.3-.62,13.16-3.12,18.76-3.62,8.11-11.42,11.45-20.35,11.26a183,183,0,0,1-18.6-1c-3.08-.38-6.62-1.51-8.87-3.51-11.41-10.12-21.52-21.94-18.66-42.28,8.61,12.88,15.21,25,31.22,27.53C174.74,607.6,187.13,605.62,197.07,593.42Z"/><path class="cls-2" d="M194.92,581.55a8,8,0,0,1-.09,4.33c-3,8.27-13.65,15.31-22.52,15.59-12.75.4-21.93-4.72-30-14.88-12-15.3-13.39-30.94-5.57-48,6.42-14,13.86-27.64,19.26-42,4.68-12.46,7.44-25.68,10.46-38.7,2.08-8.93,3.31-18.08,4.63-27.18,2.32-16,4.42-32,6.79-49.23,1,2,1.84,3,2,4.18,2.11,15,3.73,30.08,6.26,45,3.78,22.29-3.36,42.7-10.29,63.07C168.57,515.27,160,536.46,152.64,558c-3,8.76-4,17.89,2.92,26.05,5.59,6.56,16.5,5.35,19.6-2.65,0.42-1.08-.28-2.6-0.46-3.91-1.43.48-3.45,0.53-4.2,1.53-5,6.62-7.82,6.58-12-.53-3.46-5.94-2.35-19.79,2.19-24.9,3.48-3.9,8-4.22,12.21-1.85C184.6,558.39,191.69,568.63,194.92,581.55Z"/><path class="cls-2" d="M195.31,183.67c0,0.35-4.25,24-5.91,35.89-2.65,19-5.4,37.95-7.4,57-2.88,27.47-4.59,55.06-7.78,82.49-3.3,28.42-7.9,56.7-11.7,85.06-2.42,18.08-5.32,36-12.48,52.93-4.16,9.82-8.55,19.59-13.48,29-7.87,15.08-11.3,31.27-13.32,47.91a16,16,0,0,1-1.15,5.29,32.48,32.48,0,0,1-2.83-15.83c1-12.12,2.11-24.33,4.56-36.21,5.47-26.57,10.37-53.38,18.15-79.29,7.58-25.2,7.67-51.07,11.44-76.58q4-26.92,7-54c1.43-12.62,2.07-25.34,3.21-38,2.07-22.93,5.82-45.57,15.4-66.68C183.59,202.64,189.83,193.33,195.31,183.67Z"/><path class="cls-2" d="M185.6,630.08c-4.41,7.34-8.13,13.7-12.07,19.91a5.43,5.43,0,0,1-3.53,2.27c-24.29,2.38-45.92-2.61-63-21.65-15.75-17.52-20.78-38-18.84-60.87,1-12.34.66-25,3.46-37,4-16.9,10.21-33.27,15.61-49.82,4.16-12.77,8.61-25.44,12.69-38.23,1.08-3.4,2.24-5.08,6.25-4.24,3.07,0.64,6.39.12,10.38,0.12-4.16,18.34-8.39,35.74-12,53.26-4.06,19.7-8.12,39.43-11.09,59.31-1.68,11.29.21,22.48,3.81,33.74,4.3,13.43,13.12,23.29,21.82,33.32,9,10.38,21.91,10.73,34.53,10.7C177.21,630.94,180.84,630.44,185.6,630.08Z"/><path class="cls-2" d="M122.68,650.4a79.22,79.22,0,0,0,45.79,7.3c-5.94,11.74-11.52,22.77-17.11,33.8a41.5,41.5,0,0,0-2.06,4c-3.62,9.58-3.59,9.56-13.46,6-14.23-5.13-25.87-14.34-35.54-25.39A252.2,252.2,0,0,1,74,640c-12.62-20.95-14.71-44.48-13.86-68.45s9.24-45.71,17.8-67.39c9.27-23.44,18.21-46.85,21.56-72,0.38-2.82,1.1-5.58.77-6.76,4.78,3.86,10,7.34,14.11,11.81,1.33,1.44.47,5.65-.39,8.27-4.56,13.94-9.46,27.76-14.21,41.64-3.29,9.59-6.7,19.15-9.74,28.82a139,139,0,0,0-5,19.16c-3.65,22.39-6.15,45.18-.5,67.28C89.92,623.42,101.83,640.46,122.68,650.4Z"/><path class="cls-2" d="M145.41,381.64c2.19,8.13-.82,14.23-5.43,19.07-6.29,6.62-13,12.94-21.9,16.35-7.08,2.72-13.77,2.75-19.51-2.68C90.73,407,85.7,397.84,82.89,386.51,105.15,402.42,125.43,395.07,145.41,381.64Z"/><path class="cls-2" d="M142.91,405.53l1.44,0.95c-1.39,7.9-2.44,15.87-4.29,23.66-1.38,5.85-9.05,8.77-16.16,5.57-5.18-2.33-9.55-6.46-14.28-9.79l1-2.05C123.66,422,133.71,414.54,142.91,405.53Z"/><path class="cls-2" d="M138.94,709.39c3.89,1.56,4.28,3.29,2.95,6.64a312.06,312.06,0,0,0-19.06,70.11c-2.24,15.27-4.9,30.41-3,45.66,1.46,11.46,5.11,22.64,7.85,33.93a37.91,37.91,0,0,1,1.49,6.57,109.58,109.58,0,0,1-27.16-43.82c-7.69-23.47-8.57-47.25-4.63-71.38,2-12.49,4-25,6.73-37.35,1.77-7.9,5-15.47,7.43-22.88C121.39,701.42,130,705.8,138.94,709.39Z"/></svg>