<svg id="Layer_1" data-name="Layer 1" xmlns="http://www.w3.org/2000/svg" viewBox="0 0 269.18 222.64"><defs><style>.cls-1{fill:#fff;}</style></defs><title>LinkedInWhite</title><path class="cls-1" d="M1488.18,214c4.31-4.67,7-7,8.92-9.76,7.82-11.27,18.86-16.37,32.13-17.73,26.72-2.74,42.74,6.28,54.51,30.56,7,14.39,11.06,29.6,13.66,45.29,2.66,16.06,5.49,32.09,7.94,48.19a53.12,53.12,0,0,1,.45,14.7c-0.66,5-3.39,6.9-8.64,6.54-10.37-.69-20.74-1.56-31-2.92-7.77-1-9.77-3.48-11.19-11.31-1.69-9.34-3.28-18.69-5-28-1.55-8.28-6.19-15-11.43-21.28a24,24,0,0,0-4-3.63c-14.51-11-29.13-5.53-31.72,12.6-1.33,9.32-.5,19-0.56,28.44,0,5,.46,10,0.12,14.92-0.48,6.92-3.1,9.94-9.91,10.76q-16.15,1.95-32.41,2.88c-7.37.42-9.69-1.33-11.15-8.89-2-10.2-3.23-20.54-4.64-30.85-1.16-8.5-1.94-17.06-3.13-25.56-2.69-19.25-5.69-38.46-8.22-57.73-1.44-10.94-.62-12.83,9.7-16.09s21-5.18,31.65-7.29c4.65-.93,7.86,1.66,9.09,6.2C1484.76,199.65,1486,205.3,1488.18,214Z" transform="translate(-1336.93 -111.68)"/><path class="cls-1" d="M1406.53,332.11c-5.39.54-10.77,1.19-16.16,1.59a145.68,145.68,0,0,1-14.88.59c-5.05-.15-8.53-2.92-9.62-8a132.74,132.74,0,0,1-2.2-13.37c-3-26.94-5.74-53.9-8.77-80.84-0.75-6.71-2.2-13.34-3.29-20-1.22-7.46.5-10.42,7.74-11.33,15.23-1.91,30.5-3.62,45.79-5,8.51-.74,12.24,2.88,13,11.83,0.84,10.34,1.22,20.73,2,31.07,2,25.22,4.26,50.41,6.25,75.63,1.4,17.77.75,18.34-17.14,18.21h-2.71Z" transform="translate(-1336.93 -111.68)"/><path class="cls-1" d="M1373,111.7c8.35-.26,16.06,1.93,23.48,5.65,19,9.5,25.65,34,14.14,52a21.71,21.71,0,0,1-12.58,9.72c-27.09,7.69-46,.77-57.89-23.19-9.38-18.94,2.6-41.16,23.38-43.46C1366.69,112,1369.86,111.92,1373,111.7Z" transform="translate(-1336.93 -111.68)"/></svg>