<svg id="Layer_1" data-name="Layer 1" xmlns="http://www.w3.org/2000/svg" viewBox="0 0 285.11 291.19"><defs><style>.cls-1{fill:#fff;}</style></defs><title>TwitterWhite</title><path class="cls-1" d="M522.15,340.27c-28.51-3.05-55.09-9.61-75.88-33-16.75-18.84-28.14-39.69-35.72-63.2a49.42,49.42,0,0,1-2.09-8.7,4.73,4.73,0,0,1,1.44-3.89,4.15,4.15,0,0,1,3.95.53c13.2,13,29.72,15.43,47.12,15,10.34-.28,19.44-4.24,27.46-10.56,1.2-.95,1.76-3.35,1.67-5,0-.86-2.12-2.08-3.41-2.29a35.52,35.52,0,0,0-8.94-.55c-19.78,1.84-35.49-8.23-51.47-17.45a23.14,23.14,0,0,1-5.62-4.86,5.26,5.26,0,0,1,2.38-8.52c4.29-1.2,8.85-1.48,13.1-2.77,1.51-.46,2.94-2.54,3.52-4.2,0.3-.87-1-2.93-2.11-3.56-3.87-2.24-8-4-12-6.11-18-9.77-27.5-25.5-31.44-45.08a15.21,15.21,0,0,1-.07-4.46c0.31-3.08,4.08-5.27,6.71-3.74a57.75,57.75,0,0,1,5.94,4.48c3.16,2.44,6.15,5.14,9.51,7.27,3.67,2.33,8.28,6.8,11.95,3.78,4.32-3.56-.55-8.05-2.68-11.6a95.68,95.68,0,0,1-13.44-40.92c-1.16-12.55.53-24.9,4-36.94,0.56-1.94,3.2-4.4,5-4.54s4.8,1.93,5.63,3.77C434,69.2,444.28,83.26,455.13,97a94.4,94.4,0,0,0,39.07,29.36c9.24,3.76,18.46,7.61,27.83,11,7.78,2.85,14.5,1.78,19.62-5.82a43.94,43.94,0,0,1,9.48-9.5c15.28-12,31.47-16.48,50-6.76,6.49,3.4,14,5.25,21.2,6.87,12.54,2.82,23.68-.88,33.43-9,2.29-1.91,4.26-4.35,6.8-5.78a5.67,5.67,0,0,1,5.29.48c1.11,1,1.74,3.95,1.07,5.25-2.76,5.29-6.32,10.16-9.18,15.4-3.71,6.81-2.38,9.72,5.25,11.93,3.34,1,6.95,1,10.22,2.16,1.6,0.54,3.54,2.38,3.81,3.9a6.38,6.38,0,0,1-2.15,5.05,57.69,57.69,0,0,1-10,6.46c-14.91,7.56-25.51,19.41-32.13,34.33A272,272,0,0,0,622,229c-6.36,22.63-12.85,45.22-25.07,65.49-4.85,8-11.16,15.26-17.32,22.43C564.6,334.39,545.29,342,522.15,340.27Z" transform="translate(-393.97 -49.33)"/></svg>