<svg id="Layer_1" data-name="Layer 1" xmlns="http://www.w3.org/2000/svg" viewBox="0 0 235.1 340.52"><defs><style>.cls-1{fill:#fff;}</style></defs><title>⁬GithubWhite</title><path class="cls-1" d="M1125.88,224.53c-0.76-8.19,1.68-17.23,5.32-26.16,2.44-6,1.13-7.92-4.9-9.9-10.89-3.57-21.84-7-32.66-10.77-23.12-8-32.63-26.46-36.17-48.89-1-6.34-.43-13-0.24-19.46,0.2-6.82-1.57-12.75-6.19-17.89-13.8-15.32-18.79-33.76-18.55-53.9a218.71,218.71,0,0,1,1.22-22.44c0.81-7.06,4.32-9.77,11.17-9,18.89,2.1,35.79,8.91,49.74,22.12,5.8,5.49,11.52,11.1,17,16.94s11.85,8.24,20,8.19c16-.09,31.93.46,47.86,1.36,7,0.4,11.09-1.82,14-8.28,6.22-13.72,13.57-26.91,26.33-35.74,5.66-3.92,12.08-6.83,18.39-9.69,5.29-2.4,9.82-.27,13.16,4.12a32.13,32.13,0,0,1,4.51,7.73c8,20.76,8.33,41.39-4.64,60.15-14.75,21.33-13,18.23-7.61,41.1,3.19,13.49,4.58,27.49,1.6,41.62-1.8,8.51-5.63,14.82-13.24,18.8-4.87,2.54-9.91,4.76-14.75,7.35-6.32,3.39-7.34,5.83-3.16,11.82,8.2,11.76,12.84,24.95,15.64,38.65a361.19,361.19,0,0,1,5.48,40c2,21.92,8.24,42,22.43,59.24,1.25,1.53,1.48,4.66.88,6.66-0.36,1.19-3.27,2.29-5,2.27-5.48-.07-10.95-1-16.42-1.06-25.48-.24-51-0.22-76.44-0.47a142.85,142.85,0,0,1-20.9-1.29c-6.84-1.08-31,3.4-32.32-5.13-0.64-4,16.37-54.54,6.47-54.31-19.49.46-39-11.25-45.83-29.82-2.33-6.3-3.2-13-5.35-19.41a19.8,19.8,0,0,0-4.41-7.89c-5.35-5.32-15.05-5.27-22-4.25-3.7.54-11.08,2.46-9.66-4.68,0.66-3.29,3.67-5.53,6.56-7.23,7.7-4.54,16.85-7.73,25.54-5.62,27.24,6.62,20.93,48.52,49.47,54a16.3,16.3,0,0,0,7.62-.11c4-1.18,7.12-4.56,8.75-8.41C1127.12,238.57,1126.48,231.11,1125.88,224.53Z" transform="translate(-1026.37)"/></svg>